<?xml version="1.0" encoding="UTF-8"?>
<svg version="1.1" xmlns="http://www.w3.org/2000/svg" width="256" height="256">
<path d="M0 0 C84.48 0 168.96 0 256 0 C256 84.48 256 168.96 256 256 C171.52 256 87.04 256 0 256 C0 171.52 0 87.04 0 0 Z " fill="#8A8D94" transform="translate(0,0)"/>
<path d="M0 0 C1.32 0 2.64 0 4 0 C4.33 3.96 4.66 7.92 5 12 C6.98 11.34 8.96 10.68 11 10 C11 10.66 11 11.32 11 12 C11.5775 12.268125 12.155 12.53625 12.75 12.8125 C15 14 15 14 16.74491882 15.56915283 C19.78935707 17.50084642 21.74851214 17.26162881 25.33129883 17.08105469 C26.61817093 17.02399353 27.90504303 16.96693237 29.23091125 16.90814209 C30.63963452 16.82968391 32.04834077 16.75091968 33.45703125 16.671875 C34.92072486 16.60132306 36.38448776 16.53219576 37.84831238 16.4644165 C41.71841336 16.28145573 45.58730219 16.07956802 49.45623779 15.87359619 C53.30427866 15.67174973 57.15311607 15.48671338 61.00195312 15.30078125 C66.21678666 15.04765298 71.43119754 14.78788449 76.64524651 14.51908112 C82.51569926 14.21690708 88.38556152 13.93433605 94.25927734 13.70117188 C95.33884201 13.65816956 96.41840668 13.61516724 97.53068542 13.57086182 C99.49953834 13.49469821 101.4685421 13.42230089 103.43769836 13.35443115 C107.85858322 13.31512081 107.85858322 13.31512081 112 12 C113.98 12 115.96 12 118 12 C118 42.03 118 72.06 118 103 C33.52 103 -50.96 103 -138 103 C-138 76.93 -138 50.86 -138 24 C-125.13 23.34 -112.26 22.68 -99 22 C-89.71549474 21.21337422 -89.71549474 21.21337422 -81.02734375 19.2265625 C-79.74271797 18.86374739 -78.45735723 18.50352745 -77.17138672 18.14550781 C-76.49903992 17.95766724 -75.82669312 17.76982666 -75.13397217 17.57629395 C-71.27818648 16.53501235 -67.39128962 15.62575817 -63.50390625 14.7109375 C-62.69166595 14.51929016 -61.87942566 14.32764282 -61.04257202 14.13018799 C-58.54962022 13.54338355 -56.05609911 12.95904695 -53.5625 12.375 C-51.03493082 11.78107574 -48.50751286 11.1865149 -45.98020935 10.59146118 C-44.4254313 10.22558596 -42.87048206 9.86043707 -41.31532288 9.4961853 C-37.75086445 8.65924251 -34.197529 7.79579864 -30.65209961 6.88134766 C-27.5669018 6.13680831 -25.14100887 5.80368695 -22 6 C-29.12655498 13.12655498 -46.62335686 13.9168863 -56.13623047 15.89355469 C-61.82631638 17.07934823 -67.44529697 18.28205061 -73 20 C-57.30744139 20.1499289 -41.67659386 19.70079649 -26 19 C-26 21.64 -26 24.28 -26 27 C-25.34 27.33 -24.68 27.66 -24 28 C-25.98 28.33 -27.96 28.66 -30 29 C-30 29.66 -30 30.32 -30 31 C-28.35 31.66 -26.7 32.32 -25 33 C-24.505 32.01 -24.505 32.01 -24 31 C-22.515 31.495 -22.515 31.495 -21 32 C-20.6596875 30.97261719 -20.319375 29.94523437 -19.96875 28.88671875 C-16.79093471 19.67306004 -13.17980082 12.61340326 -7 5 C-6.34 4.01 -5.68 3.02 -5 2 C-2 3 -2 3 -0.8125 5.0625 C-0.4103125 6.0215625 -0.4103125 6.0215625 0 7 C0.66 7 1.32 7 2 7 C1.01 5.515 1.01 5.515 0 4 C0 2.68 0 1.36 0 0 Z " fill="#8C8E94" transform="translate(138,153)"/>
<path d="M0 0 C84.48 0 168.96 0 256 0 C256 6.27 256 12.54 256 19 C252.49994414 19.0275354 249.0001148 19.04709069 245.5 19.0625 C244.53707031 19.07087891 243.57414063 19.07925781 242.58203125 19.08789062 C237.01099157 19.10609664 231.50326265 18.92232976 225.94641113 18.51820374 C215.72623344 17.83551963 205.50300968 17.73773488 195.26367188 17.61108398 C193.12340338 17.58171518 190.98313959 17.55200155 188.84288025 17.52197266 C183.08165773 17.44210263 177.32038207 17.3670056 171.55908394 17.29281878 C165.51994191 17.21422467 159.48086123 17.13116695 153.44177246 17.04859924 C142.0277795 16.89321455 130.61373756 16.74179676 119.19967222 16.59183317 C106.19587895 16.42078761 93.19214714 16.24527556 80.18841839 16.06940353 C53.45901066 15.70799456 26.72953126 15.35214525 0 15 C0 10.05 0 5.1 0 0 Z " fill="#E6B85A" transform="translate(0,0)"/>
<path d="M0 0 C-7.12655498 7.12655498 -24.62335686 7.9168863 -34.13623047 9.89355469 C-39.82631638 11.07934823 -45.44529697 12.28205061 -51 14 C-35.30744139 14.1499289 -19.67659386 13.70079649 -4 13 C-4 15.64 -4 18.28 -4 21 C-3.34 21.33 -2.68 21.66 -2 22 C-3.98 22.33 -5.96 22.66 -8 23 C-8 23.66 -8 24.32 -8 25 C-6.35 25.66 -4.7 26.32 -3 27 C-2.67 26.34 -2.34 25.68 -2 25 C-1.01 25.99 -1.01 25.99 0 27 C-2.45557708 28.22778854 -4.01468671 28.06631063 -6.75 28 C-10.6227002 27.95509913 -14.19407056 28.1987517 -18 29 C-18 29.66 -18 30.32 -18 31 C-17.01 31.99 -17.01 31.99 -16 33 C-19.93288364 33.93087909 -23.57654163 34.11608885 -27.61328125 34.09765625 C-28.86044922 34.09443359 -30.10761719 34.09121094 -31.39257812 34.08789062 C-32.68615234 34.07951172 -33.97972656 34.07113281 -35.3125 34.0625 C-37.28186523 34.05573242 -37.28186523 34.05573242 -39.29101562 34.04882812 C-42.5273901 34.03705949 -45.76367178 34.0206176 -49 34 C-45.90310918 32.38247896 -43.19585989 31.50976366 -39.75 30.875 C-38.85796875 30.70742187 -37.9659375 30.53984375 -37.046875 30.3671875 C-36.37140625 30.24601562 -35.6959375 30.12484375 -35 30 C-40.06375438 27.46812281 -47.28018926 29.19939018 -52.703125 29.9765625 C-55.34655575 30.00353628 -56.7580268 29.34724077 -59 28 C-59.495 29.485 -59.495 29.485 -60 31 C-60.56203125 30.94199219 -61.1240625 30.88398438 -61.703125 30.82421875 C-68.48058968 30.46039779 -74.3253602 31.69042236 -80.8125 33.4375 C-92.62346964 36.59572453 -103.77603691 37.16518869 -116 37 C-116 30.73 -116 24.46 -116 18 C-113.31230469 17.86722656 -110.62460938 17.73445313 -107.85546875 17.59765625 C-105.21750201 17.46578711 -102.57957497 17.33314891 -99.94165039 17.20043945 C-98.12528413 17.10946818 -96.30887839 17.01928127 -94.49243164 16.92993164 C-89.3715894 16.67776362 -84.25196068 16.41121126 -79.13323975 16.11895752 C-77.35968112 16.02005718 -75.58541533 15.9339384 -73.81103516 15.85107422 C-67.36079329 15.44113667 -61.37578742 13.88897977 -55.17138672 12.14550781 C-50.64338667 10.88047296 -46.07978483 9.78778223 -41.50390625 8.7109375 C-40.69166595 8.51929016 -39.87942566 8.32764282 -39.04257202 8.13018799 C-36.54962022 7.54338355 -34.05609911 6.95904695 -31.5625 6.375 C-29.03493082 5.78107574 -26.50751286 5.1865149 -23.98020935 4.59146118 C-22.4254313 4.22558596 -20.87048206 3.86043707 -19.31532288 3.4961853 C-15.75086445 2.65924251 -12.197529 1.79579864 -8.65209961 0.88134766 C-5.5669018 0.13680831 -3.14100887 -0.19631305 0 0 Z " fill="#8D8F95" transform="translate(116,159)"/>
<path d="M0 0 C83.82 0 167.64 0 254 0 C254 2.64 254 5.28 254 8 C246.73846154 8.49230769 246.73846154 8.49230769 243 6 C242.01 5.01 242.01 5.01 241 4 C241.33 5.32 241.66 6.64 242 8 C239.69 8 237.38 8 235 8 C235 7.34 235 6.68 235 6 C233.35 6 231.7 6 230 6 C230 6.66 230 7.32 230 8 C209.54 8 189.08 8 168 8 C168 7.34 168 6.68 168 6 C167.34 6.33 166.68 6.66 166 7 C163.85862168 7.0971682 161.71413793 7.12797125 159.57055664 7.12939453 C158.57510094 7.13198902 158.57510094 7.13198902 157.55953503 7.13463593 C155.34305054 7.139009 153.12664179 7.13603994 150.91015625 7.1328125 C149.34901913 7.13382676 147.78788219 7.13516541 146.22674561 7.1368103 C142.03982286 7.13951559 137.85293702 7.13503635 133.66601944 7.12857056 C131.06342712 7.12500127 128.46084031 7.12338223 125.85824585 7.12231445 C105.69071964 7.11201658 85.53616707 7.0178763 65.37585449 6.42880249 C43.58709755 5.79266048 21.79594945 5.9071175 0 6 C0 4.02 0 2.04 0 0 Z " fill="#9A8D83" transform="translate(0,0)"/>
<path d="M0 0 C1.5625 1.25 1.5625 1.25 3 3 C2.6875 5.1875 2.6875 5.1875 2 7 C1.34 7 0.68 7 0 7 C0 7.66 0 8.32 0 9 C1.32 9.66 2.64 10.32 4 11 C4 11.66 4 12.32 4 13 C5.11375 13.103125 6.2275 13.20625 7.375 13.3125 C9.169375 13.6528125 9.169375 13.6528125 11 14 C12.89638685 16.84458027 13.42576755 18.31462945 14.0625 21.5625 C14.53490771 23.94015535 14.91435164 25.82870329 16 28 C16.70551524 32.93860667 17.10961128 37.82535802 17.25 42.8125 C17.27578125 43.70582031 17.3015625 44.59914062 17.328125 45.51953125 C16.93664249 48.47895262 15.85062465 49.71450272 14 52 C13.74875174 54.66761764 13.74875174 54.66761764 14 57 C13.34 57 12.68 57 12 57 C12 57.66 12 58.32 12 59 C11.34 59 10.68 59 10 59 C11.45932236 65.36213343 13.106568 69.88655274 17.79296875 74.52734375 C19 76 19 76 19 79 C16.03 79.99 13.06 80.98 10 82 C9 81 9 81 8.90234375 78.27734375 C8.91394531 77.17519531 8.92554688 76.07304687 8.9375 74.9375 C8.94652344 73.83277344 8.95554688 72.72804688 8.96484375 71.58984375 C8.97644531 70.73519531 8.98804688 69.88054687 9 69 C7.68 69 6.36 69 5 69 C6.485 72.96 6.485 72.96 8 77 C4 76 4 76 1.75 72.9375 C1.1725 71.968125 0.595 70.99875 0 70 C-0.556875 70.33 -1.11375 70.66 -1.6875 71 C-4.30284522 72.1309601 -6.1806646 72.15662974 -9 72 C-6.22719294 68.91910327 -3.93673644 67.31224548 0 66 C-0.33 65.01 -0.66 64.02 -1 63 C-2.65 63 -4.3 63 -6 63 C-5.34 61.68 -4.68 60.36 -4 59 C-3.34 59 -2.68 59 -2 59 C-2.33 57.68 -2.66 56.36 -3 55 C-3.63808594 54.86722656 -4.27617187 54.73445313 -4.93359375 54.59765625 C-5.75988281 54.42105469 -6.58617188 54.24445313 -7.4375 54.0625 C-8.26121094 53.88847656 -9.08492187 53.71445313 -9.93359375 53.53515625 C-12 53 -12 53 -13 52 C-13.07226502 50.14712498 -13.0838122 48.29166122 -13.0625 46.4375 C-13.05347656 45.42558594 -13.04445313 44.41367188 -13.03515625 43.37109375 C-13.02355469 42.58863281 -13.01195313 41.80617187 -13 41 C-13.721875 41.474375 -14.44375 41.94875 -15.1875 42.4375 C-17.89475226 43.94152903 -19.96194275 44.56599182 -23 45 C-26 41.25 -26 41.25 -26 39 C-23.53602728 37.08232093 -21.02092258 35.29760041 -18.44140625 33.54101562 C-14.92380572 31.03631452 -13.07172956 29.20944383 -12 25 C-11.76874117 23.19460437 -11.60310491 21.37972409 -11.5 19.5625 C-11.19175848 15.39283292 -10.44221659 11.94205869 -9 8 C-9 6.68 -9 5.36 -9 4 C-7.68 4.33 -6.36 4.66 -5 5 C-5 4.34 -5 3.68 -5 3 C-2.5 1.375 -2.5 1.375 0 0 Z " fill="#342F36" transform="translate(133,84)"/>
<path d="M0 0 C0 1.32 0 2.64 0 4 C-2.46402601 5.23201301 -4.18391046 5.15711016 -6.9375 5.2109375 C-7.91460937 5.23929688 -8.89171875 5.26765625 -9.8984375 5.296875 C-11.96596391 5.34895375 -14.03370171 5.39322648 -16.1015625 5.4296875 C-17.56722656 5.47609375 -17.56722656 5.47609375 -19.0625 5.5234375 C-20.41021484 5.5531665 -20.41021484 5.5531665 -21.78515625 5.58349609 C-22.88150391 5.78966553 -22.88150391 5.78966553 -24 6 C-24.66 6.99 -25.32 7.98 -26 9 C-24.68 9.66 -23.36 10.32 -22 11 C-28.58828755 13.04640353 -35.18831479 15.05050335 -41.79736328 17.02880859 C-44.75806329 17.92663331 -47.70505608 18.86009092 -50.65234375 19.80078125 C-63.63069029 23.80092466 -75.45356563 24.77215864 -89 24 C-87.10864478 18.60889299 -87.10864478 18.60889299 -84.30371094 17.06835938 C-82.17685669 16.34728617 -80.05861199 15.77460204 -77.875 15.25 C-77.11324463 15.04737549 -76.35148926 14.84475098 -75.56665039 14.63598633 C-73.38353382 14.06302591 -71.19524279 13.52432308 -69 13 C-67.97003906 12.75121094 -66.94007813 12.50242188 -65.87890625 12.24609375 C-63.92619383 11.79931315 -61.96427191 11.39285438 -60 11 C-60.66 10.01 -61.32 9.02 -62 8 C-64.61677492 7.66207464 -67.00936392 7.51113911 -69.6328125 7.48828125 C-70.38464813 7.47033005 -71.13648376 7.45237885 -71.91110229 7.43388367 C-74.31567756 7.37964219 -76.72005285 7.34584208 -79.125 7.3125 C-80.75393417 7.27933898 -82.3828419 7.24485045 -84.01171875 7.20898438 C-88.00766846 7.12390838 -92.00355746 7.05716422 -96 7 C-96 6.34 -96 5.68 -96 5 C-90.8962661 4.70043196 -85.7920614 4.41005648 -80.6875 4.125 C-79.89298431 4.08053741 -79.09846863 4.03607483 -78.27987671 3.99026489 C-67.27590565 3.38081796 -56.27080637 2.87361417 -45.2578125 2.45703125 C-44.10084366 2.41318298 -42.94387482 2.36933472 -41.75184631 2.32415771 C-35.98089743 2.10748366 -30.20974908 1.89871208 -24.43823242 1.69775391 C-22.30907985 1.62017695 -20.17992936 1.54254297 -18.05078125 1.46484375 C-17.06284576 1.43260208 -16.07491028 1.40036041 -15.05703735 1.36714172 C-13.7029628 1.3167701 -13.7029628 1.3167701 -12.3215332 1.26538086 C-11.53156448 1.2381041 -10.74159576 1.21082733 -9.9276886 1.182724 C-6.44733835 0.85282449 -3.71147489 -0.08068424 0 0 Z " fill="#A4A6AA" transform="translate(256,165)"/>
<path d="M0 0 C39.93 0 79.86 0 121 0 C121 0.66 121 1.32 121 2 C119.02 1.67 117.04 1.34 115 1 C115 1.66 115 2.32 115 3 C133.315 3.495 133.315 3.495 152 4 C152 4.33 152 4.66 152 5 C158.93 5.495 158.93 5.495 166 6 C166 6.33 166 6.66 166 7 C154.39584435 7.03052687 142.79169007 7.05099276 131.1875 7.0625 C129.89591791 7.06378403 129.89591791 7.06378403 128.57824326 7.06509399 C107.50321249 7.08357462 86.44415045 7.04663049 65.37640381 6.42852783 C43.58746538 5.79267135 21.79612159 5.90711677 0 6 C0 4.02 0 2.04 0 0 Z " fill="#978D88" transform="translate(0,0)"/>
<path d="M0 0 C0.66 0 1.32 0 2 0 C2 6.27 2 12.54 2 19 C-1.50005586 19.0275354 -4.9998852 19.04709069 -8.5 19.0625 C-9.46292969 19.07087891 -10.42585937 19.07925781 -11.41796875 19.08789062 C-17.13092216 19.10656041 -22.78416905 18.91048156 -28.48388672 18.51246643 C-36.27278621 17.99867179 -44.04585852 17.79570645 -51.8515625 17.70288086 C-53.2529242 17.68336273 -54.65428114 17.66350015 -56.05563354 17.64332581 C-59.80245973 17.59033445 -63.54933258 17.54206506 -67.29623413 17.49474788 C-71.2333354 17.44419081 -75.17037408 17.3891462 -79.10742188 17.33460999 C-86.53711933 17.23235878 -93.96686333 17.13405053 -101.39663315 17.03721577 C-109.86605119 16.92663463 -118.33540658 16.81157124 -126.80475998 16.69616115 C-144.20310904 16.45917641 -161.6015273 16.22772362 -179 16 C-179 15.67 -179 15.34 -179 15 C-148.64 14.67 -118.28 14.34 -87 14 C-86.67 13.01 -86.34 12.02 -86 11 C-63.89 10.67 -41.78 10.34 -19 10 C-19 9.34 -19 8.68 -19 8 C-16.69 8 -14.38 8 -12 8 C-12.33 6.68 -12.66 5.36 -13 4 C-9.125 5.875 -9.125 5.875 -8 7 C-6.65252916 7.23075082 -5.29622435 7.41153063 -3.9375 7.5625 C-2.638125 7.706875 -1.33875 7.85125 0 8 C-0.185625 6.865625 -0.37125 5.73125 -0.5625 4.5625 C-0.7790625 2.7990625 -0.7790625 2.7990625 -1 1 C-0.67 0.67 -0.34 0.34 0 0 Z " fill="#E2B256" transform="translate(254,0)"/>
<path d="M0 0 C0 2.31 0 4.62 0 7 C-24.42 7 -48.84 7 -74 7 C-74 5.02 -74 3.04 -74 1 C-68.54495656 -0.57722609 -62.8891034 -0.42901973 -57.25 -0.625 C-55.96206543 -0.67003662 -54.67413086 -0.71507324 -53.34716797 -0.76147461 C-35.56406337 -1.29964437 -17.77402812 -0.59880416 0 0 Z " fill="#E2B356" transform="translate(74,8)"/>
<path d="M0 0 C0.495 1.485 0.495 1.485 1 3 C40.27 3 79.54 3 120 3 C120 3.66 120 4.32 120 5 C140.46 5 160.92 5 182 5 C182 4.34 182 3.68 182 3 C183.65 3 185.3 3 187 3 C187 4.32 187 5.64 187 7 C103.91136993 7.19697187 103.91136993 7.19697187 62.875 6.5625 C62.16806 6.55169277 61.46112 6.54088554 60.73275757 6.52975082 C46.4648491 6.31049262 32.1984531 6.04705582 17.93359375 5.67578125 C16.93428329 5.64989929 15.93497284 5.62401733 14.90538025 5.59735107 C13.93347244 5.57215393 12.96156464 5.54695679 11.96020508 5.52099609 C10.07763699 5.47232023 8.19506864 5.42365457 6.3125 5.375 C5.42033783 5.35157532 4.52817566 5.32815063 3.60897827 5.30401611 C-13.62071058 4.86503553 -30.78380606 5.22990754 -48 6 C-48 5.01 -48 4.02 -48 3 C-32.16 3 -16.32 3 0 3 C0 2.01 0 1.02 0 0 Z " fill="#E7C58D" transform="translate(48,3)"/>
<path d="M0 0 C3.37115698 -0.30646882 5.35414399 -0.41263023 8.25 1.4375 C10.37950463 4.55570321 10.95107248 7.29481897 11.60546875 10.9765625 C11.91766367 13.05847316 11.91766367 13.05847316 13 15 C13.70551524 19.93860667 14.10961128 24.82535802 14.25 29.8125 C14.27578125 30.70582031 14.3015625 31.59914062 14.328125 32.51953125 C13.93664249 35.47895262 12.85062465 36.71450272 11 39 C10.74875174 41.66761764 10.74875174 41.66761764 11 44 C10.34 44 9.68 44 9 44 C9 44.66 9 45.32 9 46 C7.515 46.495 7.515 46.495 6 47 C5.814375 46.21625 5.62875 45.4325 5.4375 44.625 C4.7259375 43.325625 4.7259375 43.325625 4 42 C1.69 41.34 -0.62 40.68 -3 40 C-2.01 33.4 -1.02 26.8 0 20 C0.66 20 1.32 20 2 20 C2.33 20.66 2.66 21.32 3 22 C3.02703562 19.41659616 3.04685611 16.83347692 3.0625 14.25 C3.07087891 13.52039063 3.07925781 12.79078125 3.08789062 12.0390625 C3.10383732 8.53078956 3.09943912 5.34298884 2 2 C1.34 1.34 0.68 0.68 0 0 Z " fill="#3C333C" transform="translate(136,97)"/>
<path d="M0 0 C1.86398438 0.00676758 1.86398438 0.00676758 3.765625 0.01367188 C6.80213502 0.02535076 9.83854088 0.0417286 12.875 0.0625 C9.49299249 2.31717167 6.16988283 3.32651465 2.3125 4.4375 C1.19705811 4.762948 1.19705811 4.762948 0.05908203 5.0949707 C-6.23064619 6.88987643 -12.57203165 8.36912243 -18.97094727 9.71826172 C-22.27907217 10.41650465 -25.48144843 11.16881596 -28.7265625 12.13671875 C-37.81470476 14.61245406 -47.75862423 14.23453547 -57.125 14.0625 C-57.125 12.7425 -57.125 11.4225 -57.125 10.0625 C-48.90234408 7.36219308 -40.6700593 4.82820828 -32.25 2.8125 C-31.58621338 2.64975586 -30.92242676 2.48701172 -30.23852539 2.31933594 C-20.21961801 -0.00725367 -10.24516347 -0.07129932 0 0 Z " fill="#E4E5E3" transform="translate(57.125,181.9375)"/>
<path d="M0 0 C1.26714844 -0.01474365 2.53429688 -0.0294873 3.83984375 -0.04467773 C6.86995881 0.16995542 8.53079767 0.57788217 11.0625 2.18359375 C10.7325 2.51359375 10.4025 2.84359375 10.0625 3.18359375 C13.0325 3.51359375 16.0025 3.84359375 19.0625 4.18359375 C18.7325 4.84359375 18.4025 5.50359375 18.0625 6.18359375 C17.25208252 6.17312012 16.44166504 6.16264648 15.60668945 6.15185547 C12.53329568 6.11730084 9.46000248 6.09246921 6.38647461 6.07373047 C4.42880582 6.05899865 2.47122682 6.03355677 0.51367188 6.0078125 C-10.79451002 5.9502645 -21.4832459 7.39033433 -32.4375 10.12109375 C-33.87363055 10.4690282 -35.30982937 10.81668091 -36.74609375 11.1640625 C-37.44460449 11.33470215 -38.14311523 11.5053418 -38.86279297 11.68115234 C-42.06940672 12.45771284 -45.28436089 13.19529141 -48.5 13.93359375 C-50.294375 14.34609375 -52.08875 14.75859375 -53.9375 15.18359375 C-53.9375 11.22359375 -53.9375 7.26359375 -53.9375 3.18359375 C-48.49762439 2.45438484 -43.10433459 1.94296711 -37.625 1.6484375 C-36.8530127 1.60546036 -36.08102539 1.56248322 -35.28564453 1.51820374 C-33.65876995 1.42858585 -32.03181443 1.34042623 -30.40478516 1.25366211 C-27.97135805 1.12291296 -25.53844284 0.98459629 -23.10546875 0.84570312 C-15.40706524 0.41911129 -7.71048705 0.0815421 0 0 Z " fill="#9D9EA1" transform="translate(53.9375,176.81640625)"/>
<path d="M0 0 C0.81276398 0.0028299 1.62552795 0.00565979 2.46292114 0.00857544 C5.04053925 0.01970631 7.61780069 0.04479735 10.1953125 0.0703125 C11.95051579 0.08035149 13.70572456 0.08947573 15.4609375 0.09765625 C19.74753176 0.11962235 24.0338618 0.15410272 28.3203125 0.1953125 C23.33925127 3.51601999 17.48892659 4.76801939 11.78759766 6.45263672 C9.22932342 7.22270106 6.68826307 8.03876958 4.14453125 8.85546875 C-9.00935773 12.92167048 -20.94994924 13.97791962 -34.6796875 13.1953125 C-32.80856853 7.79814066 -32.80856853 7.79814066 -29.93505859 6.26367188 C-27.76125616 5.54715851 -25.59468419 4.97143321 -23.3671875 4.4453125 C-21.87090113 4.05542597 -20.37480368 3.66481365 -18.87890625 3.2734375 C-18.21721436 3.11262695 -17.55552246 2.95181641 -16.8737793 2.78613281 C-14.56323805 2.20585015 -14.56323805 2.20585015 -11.9597168 1.14013672 C-7.87256796 -0.03718118 -4.2266739 -0.05605378 0 0 Z " fill="#E6E6E3" transform="translate(201.6796875,175.8046875)"/>
<path d="M0 0 C2.31 0.33 4.62 0.66 7 1 C7.75 2.75 7.75 2.75 8 5 C6.0625 7.25 6.0625 7.25 4 9 C5.65 8.67 7.3 8.34 9 8 C9.33 9.32 9.66 10.64 10 12 C7.36 13.65 4.72 15.3 2 17 C3.11375 16.7525 3.11375 16.7525 4.25 16.5 C7 16 7 16 11 16 C10.55269531 16.70125 10.10539062 17.4025 9.64453125 18.125 C8.38410656 20.1029799 7.12782705 22.08360538 5.875 24.06640625 C4.79481077 25.75645232 3.69921288 27.43728563 2.5625 29.08984375 C-0.73302888 33.96104737 -2.44820304 38.92389033 -4.10546875 44.55859375 C-5 47 -5 47 -7 48 C-10.20395416 48 -12.09399739 47.25664978 -15 46 C-15 45.34 -15 44.68 -15 44 C-13.68 43.34 -12.36 42.68 -11 42 C-11.33 40.68 -11.66 39.36 -12 38 C-11.34 38 -10.68 38 -10 38 C-10 36.68 -10 35.36 -10 34 C-9.01 33.505 -9.01 33.505 -8 33 C-8.495 31.515 -8.495 31.515 -9 30 C-8.34456096 28.6611117 -7.67638101 27.32843176 -7 26 C-6.71738609 23.40802672 -6.62410149 20.84747279 -6.5390625 18.2421875 C-6 16 -6 16 -3.9609375 14.6953125 C-3.31382813 14.46585938 -2.66671875 14.23640625 -2 14 C-2.33 12.68 -2.66 11.36 -3 10 C-2.360625 9.7525 -1.72125 9.505 -1.0625 9.25 C1.19060573 8.19851273 1.19060573 8.19851273 1.625 5.9375 C1.74875 5.298125 1.8725 4.65875 2 4 C2.66 3.67 3.32 3.34 4 3 C2.68 2.01 1.36 1.02 0 0 Z " fill="#557396" transform="translate(123,138)"/>
<path d="M0 0 C4.43737712 -0.08690253 8.87453634 -0.14035926 13.3125 -0.1875 C14.57513672 -0.21263672 15.83777344 -0.23777344 17.13867188 -0.26367188 C18.34716797 -0.27333984 19.55566406 -0.28300781 20.80078125 -0.29296875 C21.91622314 -0.3086792 23.03166504 -0.32438965 24.1809082 -0.34057617 C27 0 27 0 28.88745117 1.39331055 C30 3 30 3 30 5 C32.31 5 34.62 5 37 5 C34 7 34 7 31.4375 7.5 C28.83145436 7.80148247 28.83145436 7.80148247 27 10 C25.13153622 10.63338676 23.23489695 11.18489227 21.328125 11.69140625 C20.18859375 11.99626953 19.0490625 12.30113281 17.875 12.61523438 C16.67875 12.92783203 15.4825 13.24042969 14.25 13.5625 C13.06921875 13.87896484 11.8884375 14.19542969 10.671875 14.52148438 C5.45964793 15.90378108 0.33389028 17.1779827 -5 18 C-4.63975376 13.13667581 -3.82624369 9.22889978 -1.953125 4.7109375 C-1.58864258 3.8245459 -1.22416016 2.9381543 -0.84863281 2.02490234 C-0.42855957 1.02257568 -0.42855957 1.02257568 0 0 Z " fill="#86878D" transform="translate(122,171)"/>
<path d="M0 0 C0.91007812 0.10183594 1.82015625 0.20367187 2.7578125 0.30859375 C3.45648438 0.39238281 4.15515625 0.47617188 4.875 0.5625 C5.06756441 6.07198167 5.19334516 10.46214065 2.875 15.5625 C3.37 17.0475 3.37 17.0475 3.875 18.5625 C2.885 18.5625 1.895 18.5625 0.875 18.5625 C0.545 19.8825 0.215 21.2025 -0.125 22.5625 C-0.785 21.9025 -1.445 21.2425 -2.125 20.5625 C-1.465 20.5625 -0.805 20.5625 -0.125 20.5625 C-0.125 19.9025 -0.125 19.2425 -0.125 18.5625 C-0.78693359 18.62308594 -1.44886719 18.68367188 -2.13085938 18.74609375 C-18.16889339 20.18101765 -34.02478965 20.84788688 -50.125 20.5625 C-46.96890099 18.45843399 -44.75222618 17.84128898 -41.0859375 16.9765625 C-39.26618408 16.5427124 -39.26618408 16.5427124 -37.40966797 16.10009766 C-36.10647191 15.79578452 -34.80324876 15.49158735 -33.5 15.1875 C-32.17972022 14.87473461 -30.85957058 14.5614194 -29.53955078 14.24755859 C-25.73644533 13.34505817 -21.93095686 12.4529034 -18.125 11.5625 C-15.4695095 10.93952123 -12.81405093 10.31640787 -10.15869141 9.69287109 C-8.1456358 9.22159479 -6.13145311 8.75514006 -4.1171875 8.2890625 C-1.09969061 7.60042125 -1.09969061 7.60042125 1.875 6.5625 C-0.765 6.8925 -3.405 7.2225 -6.125 7.5625 C-5.795 5.9125 -5.465 4.2625 -5.125 2.5625 C-5.785 2.5625 -6.445 2.5625 -7.125 2.5625 C-7.125 1.9025 -7.125 1.2425 -7.125 0.5625 C-4.50184968 -0.74907516 -2.89466564 -0.33399988 0 0 Z " fill="#93969B" transform="translate(112.125,153.4375)"/>
<path d="M0 0 C-7.12655498 7.12655498 -24.62335686 7.9168863 -34.13623047 9.89355469 C-39.82631638 11.07934823 -45.44529697 12.28205061 -51 14 C-35.30744139 14.1499289 -19.67659386 13.70079649 -4 13 C-4 13.66 -4 14.32 -4 15 C-7.40393345 16.70196672 -11.29902011 16.30762055 -15.05078125 16.4296875 C-17.00464204 16.50202486 -18.9584993 16.57445791 -20.91235352 16.64697266 C-21.95416779 16.68397278 -22.99598206 16.7209729 -24.06936646 16.75909424 C-46.37585782 17.55630189 -68.65229152 18.70445481 -90.93286133 20.03466797 C-92.0163385 20.09865784 -93.09981567 20.16264771 -94.21612549 20.22857666 C-96.23241555 20.34800492 -98.24858237 20.4695421 -100.2645874 20.59368896 C-105.5215081 20.90581314 -110.73376348 21.05784107 -116 21 C-116 20.01 -116 19.02 -116 18 C-114.8761792 17.94465088 -113.7523584 17.88930176 -112.59448242 17.83227539 C-108.37675638 17.62394372 -104.1591846 17.41261636 -99.94165039 17.20043945 C-98.12528413 17.10946818 -96.30887839 17.01928127 -94.49243164 16.92993164 C-89.3715894 16.67776362 -84.25196068 16.41121126 -79.13323975 16.11895752 C-77.35968112 16.02005718 -75.58541533 15.9339384 -73.81103516 15.85107422 C-67.36079329 15.44113667 -61.37578742 13.88897977 -55.17138672 12.14550781 C-50.64338667 10.88047296 -46.07978483 9.78778223 -41.50390625 8.7109375 C-40.69166595 8.51929016 -39.87942566 8.32764282 -39.04257202 8.13018799 C-36.54962022 7.54338355 -34.05609911 6.95904695 -31.5625 6.375 C-29.03493082 5.78107574 -26.50751286 5.1865149 -23.98020935 4.59146118 C-22.4254313 4.22558596 -20.87048206 3.86043707 -19.31532288 3.4961853 C-15.75086445 2.65924251 -12.197529 1.79579864 -8.65209961 0.88134766 C-5.5669018 0.13680831 -3.14100887 -0.19631305 0 0 Z " fill="#D3D3D3" transform="translate(116,159)"/>
<path d="M0 0 C0 5.94 0 11.88 0 18 C-6.93 18 -13.86 18 -21 18 C-22.0635774 14.80926781 -21.89019883 14.06624043 -21 11 C-21 10.34 -21 9.68 -21 9 C-21.99 8.67 -22.98 8.34 -24 8 C-25.6875 6.4375 -25.6875 6.4375 -27 5 C-25.81469727 3.03808594 -25.81469727 3.03808594 -24 1 C-21.67163086 0.45410156 -21.67163086 0.45410156 -18.96484375 0.390625 C-17.50401367 0.34228516 -17.50401367 0.34228516 -16.01367188 0.29296875 C-14.99853516 0.27878906 -13.98339844 0.26460937 -12.9375 0.25 C-11.91849609 0.22035156 -10.89949219 0.19070312 -9.84960938 0.16015625 C-6.5662207 0.06876969 -3.28470576 0 0 0 Z " fill="#8F9298" transform="translate(256,169)"/>
<path d="M0 0 C19.14 0 38.28 0 58 0 C58 0.66 58 1.32 58 2 C56.02 1.67 54.04 1.34 52 1 C52 1.66 52 2.32 52 3 C64.21 3.33 76.42 3.66 89 4 C89 4.33 89 4.66 89 5 C95.93 5.495 95.93 5.495 103 6 C103 6.33 103 6.66 103 7 C93.23849012 7.02312446 83.4769867 7.04091561 73.71545506 7.05181217 C69.18325906 7.05704078 64.65108173 7.06413801 60.11889648 7.07543945 C55.7487717 7.08626914 51.37866492 7.09227701 47.00852776 7.09487724 C45.33749037 7.09673135 43.66645403 7.10035168 41.99542427 7.10573006 C39.66302449 7.11294159 37.33070007 7.1139909 34.99829102 7.11352539 C34.3005809 7.11712067 33.60287079 7.12071594 32.88401794 7.12442017 C28.11405216 7.11405216 28.11405216 7.11405216 27 6 C24.67182036 5.63239269 22.3381615 5.29758419 20 5 C20.33 4.34 20.66 3.68 21 3 C17.41424837 2.16852136 14.17537618 1.91740728 10.5 2 C6.82462382 2.08259272 3.58575163 1.83147864 0 1 C0 0.67 0 0.34 0 0 Z " fill="#9B938C" transform="translate(63,0)"/>
<path d="M0 0 C9.48220423 0.96429196 9.48220423 0.96429196 13 3 C14.37109375 6.01171875 14.37109375 6.01171875 15.4375 9.6875 C17.3099413 15.70644453 19.65746464 19.45548625 24 24 C24 24.99 24 25.98 24 27 C19.545 28.485 19.545 28.485 15 30 C14 29 14 29 13.90234375 26.27734375 C13.91394531 25.17519531 13.92554688 24.07304687 13.9375 22.9375 C13.94652344 21.83277344 13.95554688 20.72804687 13.96484375 19.58984375 C13.97644531 18.73519531 13.98804688 17.88054687 14 17 C12.68 17 11.36 17 10 17 C10.99 19.64 11.98 22.28 13 25 C9 24 9 24 6.75 20.9375 C6.1725 19.968125 5.595 18.99875 5 18 C4.443125 18.33 3.88625 18.66 3.3125 19 C0.69715478 20.1309601 -1.1806646 20.15662974 -4 20 C-1.22719294 16.91910327 1.06326356 15.31224548 5 14 C4.67 13.01 4.34 12.02 4 11 C2.35 11 0.7 11 -1 11 C-0.34 9.68 0.32 8.36 1 7 C1.66 7 2.32 7 3 7 C2.01 4.69 1.02 2.38 0 0 Z " fill="#101C30" transform="translate(128,136)"/>
<path d="M0 0 C1.32 0 2.64 0 4 0 C4.33 3.96 4.66 7.92 5 12 C6.98 11.34 8.96 10.68 11 10 C11 10.66 11 11.32 11 12 C11.56203125 12.26554688 12.1240625 12.53109375 12.703125 12.8046875 C15.17930222 14.09331034 17.43844882 15.56130361 19.75 17.125 C20.54921875 17.66382813 21.3484375 18.20265625 22.171875 18.7578125 C22.77515625 19.16773438 23.3784375 19.57765625 24 20 C21.50907189 21.24546405 20.58919267 20.7767578 18 20 C18 20.66 18 21.32 18 22 C16.68 22.33 15.36 22.66 14 23 C13.67 21.68 13.34 20.36 13 19 C-0.86 18.505 -0.86 18.505 -15 18 C-13.32148677 14.64297354 -11.56779418 11.45688297 -9.625 8.25 C-8.74714844 6.77273437 -8.74714844 6.77273437 -7.8515625 5.265625 C-7.24054688 4.51796875 -6.62953125 3.7703125 -6 3 C-4.68 3 -3.36 3 -2 3 C-1.34 4.32 -0.68 5.64 0 7 C0.66 7 1.32 7 2 7 C1.34 6.01 0.68 5.02 0 4 C0 2.68 0 1.36 0 0 Z " fill="#87888E" transform="translate(138,153)"/>
<path d="M0 0 C10.89 0 21.78 0 33 0 C33.66 1.32 34.32 2.64 35 4 C27.04420843 6.81297894 19.38126511 9.41490394 10.9765625 10.54296875 C10.32429688 10.69378906 9.67203125 10.84460938 9 11 C8.67 11.66 8.34 12.32 8 13 C7.67 12.34 7.34 11.68 7 11 C6.34 10.690625 5.68 10.38125 5 10.0625 C3 9 3 9 2 6 C-0.10584438 5.19436362 -0.10584438 5.19436362 -2.5625 4.8125 C-3.38878906 4.65394531 -4.21507812 4.49539062 -5.06640625 4.33203125 C-5.70449219 4.22246094 -6.34257812 4.11289063 -7 4 C-6.34 3.67 -5.68 3.34 -5 3 C-5 2.34 -5 1.68 -5 1 C-3.35 1 -1.7 1 0 1 C0 0.67 0 0.34 0 0 Z " fill="#8C8F95" transform="translate(161,172)"/>
<path d="M0 0 C0 0.66 0 1.32 0 2 C0.70362671 1.99777939 1.40725342 1.99555878 2.13220215 1.99327087 C8.83777624 1.97304285 15.54334154 1.95791298 22.24893951 1.94818783 C25.69445624 1.94301962 29.13994727 1.93603556 32.58544922 1.92456055 C61.87734979 1.82946594 61.87734979 1.82946594 75 3 C75 3.66 75 4.32 75 5 C71.50001912 5.02990257 68.0000723 5.04709088 64.5 5.0625 C63.05560547 5.07506836 63.05560547 5.07506836 61.58203125 5.08789062 C55.86907784 5.10656041 50.21583095 4.91048156 44.51611328 4.51246643 C36.72721379 3.99867179 28.95414148 3.79570645 21.1484375 3.70288086 C19.7470758 3.68336273 18.34571886 3.66350015 16.94436646 3.64332581 C13.19754027 3.59033445 9.45066742 3.54206506 5.70376587 3.49474788 C1.7666646 3.44419081 -2.17037408 3.3891462 -6.10742188 3.33460999 C-13.53711933 3.23235878 -20.96686333 3.13405053 -28.39663315 3.03721577 C-36.86605119 2.92663463 -45.33540658 2.81157124 -53.80475998 2.69616115 C-71.20310904 2.45917641 -88.6015273 2.22772362 -106 2 C-106 1.67 -106 1.34 -106 1 C-92.7699366 0.86938559 -79.53987115 0.73898189 -66.30980301 0.60884857 C-60.16682077 0.54841845 -54.02383926 0.48791523 -47.88085938 0.42724609 C-41.95459915 0.36871999 -36.02833708 0.31038442 -30.10207367 0.25218201 C-27.83901655 0.22992261 -25.57596011 0.2075941 -23.31290436 0.18519592 C-20.14773227 0.15388093 -16.98255787 0.12280979 -13.81738281 0.09179688 C-12.87798859 0.08244614 -11.93859436 0.0730954 -10.97073364 0.0634613 C-10.10699127 0.05504715 -9.2432489 0.046633 -8.35333252 0.03796387 C-7.60483662 0.03058952 -6.85634071 0.02321518 -6.08516312 0.01561737 C-4.05682562 0.00042561 -2.02839439 0 0 0 Z " fill="#C8A579" transform="translate(181,14)"/>
<path d="M0 0 C0.66 0 1.32 0 2 0 C2 5.61 2 11.22 2 17 C-8.72886482 17.09579344 -19.30247674 16.79662407 -30 16 C-28 14 -28 14 -24.375 13.875 C-22.704375 13.936875 -22.704375 13.936875 -21 14 C-21.33 12.68 -21.66 11.36 -22 10 C-21.01 10 -20.02 10 -19 10 C-19 9.34 -19 8.68 -19 8 C-16.69 8 -14.38 8 -12 8 C-12.33 6.68 -12.66 5.36 -13 4 C-9.125 5.875 -9.125 5.875 -8 7 C-6.65252916 7.23075082 -5.29622435 7.41153063 -3.9375 7.5625 C-2.638125 7.706875 -1.33875 7.85125 0 8 C-0.185625 6.865625 -0.37125 5.73125 -0.5625 4.5625 C-0.706875 3.386875 -0.85125 2.21125 -1 1 C-0.67 0.67 -0.34 0.34 0 0 Z " fill="#DEAD52" transform="translate(254,0)"/>
<path d="M0 0 C11.22 0 22.44 0 34 0 C34 2.64 34 5.28 34 8 C26.73846154 8.49230769 26.73846154 8.49230769 23 6 C22.34 5.34 21.68 4.68 21 4 C21.33 5.32 21.66 6.64 22 8 C19.69 8 17.38 8 15 8 C15 7.34 15 6.68 15 6 C13.35 6 11.7 6 10 6 C10 6.66 10 7.32 10 8 C7.69 8 5.38 8 3 8 C2.67 7.34 2.34 6.68 2 6 C-0.02463255 5.34786708 -0.02463255 5.34786708 -2 5 C-1.34 3.35 -0.68 1.7 0 0 Z " fill="#333A4F" transform="translate(220,0)"/>
<path d="M0 0 C0 1.32 0 2.64 0 4 C-0.90510315 4.03425331 -0.90510315 4.03425331 -1.82849121 4.06919861 C-8.18930004 4.3103092 -14.54999892 4.55418276 -20.91064453 4.79956055 C-23.27487599 4.89041831 -25.63913336 4.98060449 -28.00341797 5.07006836 C-43.85396026 5.64939849 -43.85396026 5.64939849 -59.6875 6.5625 C-67.29788497 7.07149715 -74.87513616 7.11364718 -82.5 7.0625 C-83.81097656 7.05798828 -85.12195313 7.05347656 -86.47265625 7.04882812 C-89.64848917 7.03723749 -92.8242173 7.0209272 -96 7 C-96 6.34 -96 5.68 -96 5 C-90.8962661 4.70043196 -85.7920614 4.41005648 -80.6875 4.125 C-79.89298431 4.08053741 -79.09846863 4.03607483 -78.27987671 3.99026489 C-67.27590565 3.38081796 -56.27080637 2.87361417 -45.2578125 2.45703125 C-44.10084366 2.41318298 -42.94387482 2.36933472 -41.75184631 2.32415771 C-35.98089743 2.10748366 -30.20974908 1.89871208 -24.43823242 1.69775391 C-22.30907985 1.62017695 -20.17992936 1.54254297 -18.05078125 1.46484375 C-17.06284576 1.43260208 -16.07491028 1.40036041 -15.05703735 1.36714172 C-13.7029628 1.3167701 -13.7029628 1.3167701 -12.3215332 1.26538086 C-11.53156448 1.2381041 -10.74159576 1.21082733 -9.9276886 1.182724 C-6.44733835 0.85282449 -3.71147489 -0.08068424 0 0 Z " fill="#EAEAE8" transform="translate(256,165)"/>
<path d="M0 0 C6.93 0 13.86 0 21 0 C20.67 0.99 20.34 1.98 20 3 C20.66 3 21.32 3 22 3 C21.67 5.31 21.34 7.62 21 10 C16.63160599 11.05366413 12.32610154 11.21540887 7.85546875 11.31640625 C7.08568192 11.33718735 6.31589508 11.35796844 5.52278137 11.37937927 C3.07777333 11.44446049 0.63266317 11.50356591 -1.8125 11.5625 C-3.47592177 11.60572468 -5.13933344 11.64934021 -6.80273438 11.69335938 C-10.86838648 11.80009907 -14.93414071 11.90148171 -19 12 C-18.67 10.35 -18.34 8.7 -18 7 C-17.67 7.99 -17.34 8.98 -17 10 C-13.70712578 9.23426814 -10.41595144 8.46145017 -7.125 7.6875 C-6.2071875 7.47416016 -5.289375 7.26082031 -4.34375 7.04101562 C1.84968862 5.5798875 7.92066643 3.88117309 14 2 C7.07 1.505 7.07 1.505 0 1 C0 0.67 0 0.34 0 0 Z " fill="#929398" transform="translate(135,178)"/>
<path d="M0 0 C2.31 0.33 4.62 0.66 7 1 C7 1.66 7 2.32 7 3 C7.78375 3.2475 8.5675 3.495 9.375 3.75 C12.32317108 5.15389099 12.9024777 6.00675737 14 9 C11.53721199 11.46278801 9.29323018 11.99771255 6 13 C7.32 13.66 8.64 14.32 10 15 C-3.2 15 -16.4 15 -30 15 C-25.80766726 12.2051115 -22.55586333 11.87717246 -17.578125 11.68359375 C-16.04091797 11.62075195 -16.04091797 11.62075195 -14.47265625 11.55664062 C-13.40917969 11.51732422 -12.34570312 11.47800781 -11.25 11.4375 C-9.63158203 11.37272461 -9.63158203 11.37272461 -7.98046875 11.30664062 C-5.32043572 11.20071011 -2.66031188 11.09863579 0 11 C0.33 8.69 0.66 6.38 1 4 C0.34 4 -0.32 4 -1 4 C-0.67 2.68 -0.34 1.36 0 0 Z " fill="#3E434E" transform="translate(156,177)"/>
<path d="M0 0 C1.65 0 3.3 0 5 0 C5 1.32 5 2.64 5 4 C-6.084326 4.02329472 -17.16864607 4.04100165 -28.25299168 4.05181217 C-33.40133601 4.05700383 -38.54966344 4.06403296 -43.69799805 4.07543945 C-48.67766928 4.08640169 -53.65732438 4.09230474 -58.63700676 4.09487724 C-60.5253417 4.09670769 -62.41367589 4.10028136 -64.30200386 4.10573006 C-75.25062079 4.13603054 -86.08560206 3.91774415 -97 3 C-97 2.67 -97 2.34 -97 2 C-64.99 2 -32.98 2 0 2 C0 1.34 0 0.68 0 0 Z " fill="#F0CD8D" transform="translate(230,6)"/>
<path d="M0 0 C13.53 0 27.06 0 41 0 C40.34 0.33 39.68 0.66 39 1 C39 2.32 39 3.64 39 5 C26.13 5 13.26 5 0 5 C0 3.35 0 1.7 0 0 Z " fill="#493C33" transform="translate(0,0)"/>
<path d="M0 0 C23.76 0 47.52 0 72 0 C72 0.99 72 1.98 72 3 C47.9761808 3.12048983 24.00688727 2.95701756 0 2 C0 1.34 0 0.68 0 0 Z " fill="#161215" transform="translate(129,0)"/>
<path d="M0 0 C1.28825684 0.01047363 2.57651367 0.02094727 3.90380859 0.03173828 C4.93167984 0.03598312 4.93167984 0.03598312 5.98031616 0.04031372 C8.17113636 0.05151797 10.36154925 0.07662219 12.55224609 0.10205078 C14.03661519 0.1120803 15.5209907 0.1212062 17.00537109 0.12939453 C20.6461287 0.15145784 24.28664766 0.18598903 27.92724609 0.22705078 C25.443358 2.71093887 23.64050009 3.019233 20.25537109 3.91845703 C18.54607422 4.37575195 18.54607422 4.37575195 16.80224609 4.84228516 C15.60599609 5.15488281 14.40974609 5.46748047 13.17724609 5.78955078 C11.99646484 6.10601562 10.81568359 6.42248047 9.59912109 6.74853516 C4.38689403 8.13083186 -0.73886363 9.40503349 -6.07275391 10.22705078 C-5.11964891 0.37829918 -5.11964891 0.37829918 0 0 Z " fill="#E5E5E2" transform="translate(123.07275390625,178.77294921875)"/>
<path d="M0 0 C1.5625 1.25 1.5625 1.25 3 3 C2.6875 5.1875 2.6875 5.1875 2 7 C1.34 7 0.68 7 0 7 C0 7.66 0 8.32 0 9 C1.32 9.66 2.64 10.32 4 11 C3.01 11.33 2.02 11.66 1 12 C0.9175 12.78375 0.835 13.5675 0.75 14.375 C0 17 0 17 -2.0625 18.3125 C-2.701875 18.539375 -3.34125 18.76625 -4 19 C-3.67 19.99 -3.34 20.98 -3 22 C-3.99 22.33 -4.98 22.66 -6 23 C-6 22.34 -6 21.68 -6 21 C-6.66 21 -7.32 21 -8 21 C-8.12375 20.360625 -8.2475 19.72125 -8.375 19.0625 C-8.58125 18.381875 -8.7875 17.70125 -9 17 C-9.66 16.67 -10.32 16.34 -11 16 C-10.47916667 14.046875 -9.95833333 12.09375 -9.4375 10.140625 C-8.86650651 7.71098139 -8.86650651 7.71098139 -9 4 C-7.68 4.33 -6.36 4.66 -5 5 C-5 4.34 -5 3.68 -5 3 C-2.5 1.375 -2.5 1.375 0 0 Z " fill="#453C42" transform="translate(133,84)"/>
<path d="M0 0 C1.15483887 -0.00064453 2.30967773 -0.00128906 3.49951172 -0.00195312 C11.84476417 0.05242139 11.84476417 0.05242139 15.25 1.1875 C15.25 1.8475 15.25 2.5075 15.25 3.1875 C25.15 3.1875 35.05 3.1875 45.25 3.1875 C45.25 3.5175 45.25 3.8475 45.25 4.1875 C20.83 4.1875 -3.59 4.1875 -28.75 4.1875 C-28.75 3.5275 -28.75 2.8675 -28.75 2.1875 C-19.14767837 0.41281349 -9.75734715 -0.00537965 0 0 Z " fill="#D1AB75" transform="translate(28.75,10.8125)"/>
<path d="M0 0 C0 0.66 0 1.32 0 2 C-3.18762365 4.12508244 -5.26512223 4.5020163 -9 5 C-9 5.66 -9 6.32 -9 7 C-8.34 7.66 -7.68 8.32 -7 9 C-10.93288364 9.93087909 -14.57654163 10.11608885 -18.61328125 10.09765625 C-19.86044922 10.09443359 -21.10761719 10.09121094 -22.39257812 10.08789062 C-23.68615234 10.07951172 -24.97972656 10.07113281 -26.3125 10.0625 C-28.28186523 10.05573242 -28.28186523 10.05573242 -30.29101562 10.04882812 C-33.5273901 10.03705949 -36.76367178 10.0206176 -40 10 C-36.94272119 8.32880713 -34.02078263 7.38857926 -30.640625 6.5625 C-29.60679688 6.30726563 -28.57296875 6.05203125 -27.5078125 5.7890625 C-26.43273437 5.52867187 -25.35765625 5.26828125 -24.25 5 C-23.19039062 4.73960937 -22.13078125 4.47921875 -21.0390625 4.2109375 C-18.97014473 3.70269219 -16.90050053 3.19739324 -14.83007812 2.6953125 C-12.37426225 2.09195125 -9.92980902 1.45615455 -7.484375 0.8125 C-4 0 -4 0 0 0 Z " fill="#E6E6E4" transform="translate(107,183)"/>
<path d="M0 0 C0.33 0.99 0.66 1.98 1 3 C-0.6953125 5.64453125 -0.6953125 5.64453125 -3.125 8.8125 C-7.47188081 14.68470558 -9.88978114 20.34021963 -12.02734375 27.296875 C-13 30 -13 30 -15 31 C-18.20395416 31 -20.09399739 30.25664978 -23 29 C-23 28.34 -23 27.68 -23 27 C-21.68 26.34 -20.36 25.68 -19 25 C-19.33 23.68 -19.66 22.36 -20 21 C-19.34 21 -18.68 21 -18 21 C-18 19.68 -18 18.36 -18 17 C-12.25 15 -12.25 15 -10 15 C-8.99782936 11.41672247 -8.99782936 11.41672247 -10 8 C-9.01 8 -8.02 8 -7 8 C-7.66 7.34 -8.32 6.68 -9 6 C-8.43410156 5.73445312 -7.86820313 5.46890625 -7.28515625 5.1953125 C-6.55167969 4.84210938 -5.81820312 4.48890625 -5.0625 4.125 C-4.33160156 3.77695313 -3.60070312 3.42890625 -2.84765625 3.0703125 C-0.83667541 2.1315023 -0.83667541 2.1315023 0 0 Z " fill="#3B5472" transform="translate(131,155)"/>
<path d="M0 0 C2.70108504 0.090916 5.36930311 0.23740766 8.0625 0.4375 C9.20041992 0.51581055 9.20041992 0.51581055 10.36132812 0.59570312 C12.24121722 0.72575835 14.12065685 0.86228038 16 1 C16 1.33 16 1.66 16 2 C1.15924395 3.31964979 -13.68623045 4.32024199 -28.5625 5.125 C-29.77224991 5.19143707 -29.77224991 5.19143707 -31.00643921 5.25921631 C-33.33879009 5.38652123 -35.67129543 5.51037121 -38.00390625 5.6328125 C-38.69269867 5.67021545 -39.38149109 5.70761841 -40.09115601 5.74615479 C-44.73518865 5.98287189 -49.35189482 6.03047513 -54 6 C-54 5.01 -54 4.02 -54 3 C-48.70239712 2.71035354 -43.40455346 2.42576038 -38.10644531 2.14550781 C-36.31047545 2.04983405 -34.51457397 1.95286637 -32.71875 1.85449219 C-22.9445493 1.31996559 -13.23549943 0.87955862 -3.44384766 1.0625 C-1.05247916 1.2820784 -1.05247916 1.2820784 0 0 Z " fill="#DEDFDD" transform="translate(54,174)"/>
<path d="M0 0 C10.89 0 21.78 0 33 0 C33.66 1.32 34.32 2.64 35 4 C33.27709395 4.70304222 31.54632534 5.38683491 29.8125 6.0625 C28.36810547 6.63677734 28.36810547 6.63677734 26.89453125 7.22265625 C23.76494141 8.0631264 22.04997606 8.03471657 19 7 C18.67 6.34 18.34 5.68 18 5 C14.97065509 4.34227572 14.97065509 4.34227572 12 4 C11.67 4.99 11.34 5.98 11 7 C9 5 9 5 8 3 C8.66 3 9.32 3 10 3 C10 2.34 10 1.68 10 1 C6.7 1 3.4 1 0 1 C0 0.67 0 0.34 0 0 Z " fill="#97979B" transform="translate(161,172)"/>
<path d="M0 0 C-8.93178637 10.48928649 -28.77814825 15.09973485 -41.57421875 18.73046875 C-46.09505627 20.01393966 -50.58019301 21.4010673 -55.0625 22.8125 C-55.75956055 23.03164062 -56.45662109 23.25078125 -57.17480469 23.4765625 C-58.78359291 23.98313878 -60.39186022 24.49136898 -62 25 C-62 24.01 -62 23.02 -62 22 C-60.98421875 21.68546875 -59.9684375 21.3709375 -58.921875 21.046875 C-51.58745978 18.76975121 -44.25471529 16.49147061 -36.984375 14.015625 C-34.87632204 13.29822478 -32.76089102 12.60233247 -30.640625 11.921875 C-22.77589499 9.30029833 -16.12519236 5.97865545 -9.15625 1.57421875 C-5.7710283 -0.11420247 -3.72635518 -0.33110686 0 0 Z " fill="#DEDFDE" transform="translate(208,128)"/>
<path d="M0 0 C2.64 0 5.28 0 8 0 C8 0.66 8 1.32 8 2 C8.75990234 1.99476318 9.51980469 1.98952637 10.30273438 1.98413086 C33.55075582 1.84788504 56.7624753 2.3258249 80 3 C80 3.33 80 3.66 80 4 C69.82057905 4.02320381 59.64116442 4.04095604 49.46172237 4.05181217 C44.73464458 4.05702342 40.00758493 4.06408909 35.28051758 4.07543945 C30.71584966 4.08633087 26.15119915 4.09229008 21.58651924 4.09487724 C19.84787281 4.09672023 18.10922729 4.10031909 16.3705883 4.10573006 C13.92924845 4.11302353 11.48797991 4.11398745 9.04663086 4.11352539 C8.33308945 4.11712067 7.61954803 4.12071594 6.88438416 4.12442017 C2.47833696 4.1154383 -1.66617258 3.712747 -6 3 C-6 2.34 -6 1.68 -6 1 C-3.03 1.495 -3.03 1.495 0 2 C0 1.34 0 0.68 0 0 Z " fill="#746965" transform="translate(121,0)"/>
<path d="M0 0 C3 1 3 1 5 3 C5.90881016 5.7432802 6.11945003 8.23259605 6.09765625 11.109375 C6.09443359 11.86347656 6.09121094 12.61757812 6.08789062 13.39453125 C6.07951172 14.17183594 6.07113281 14.94914062 6.0625 15.75 C6.05798828 16.54277344 6.05347656 17.33554688 6.04882812 18.15234375 C6.03708565 20.10159508 6.01915146 22.05080738 6 24 C5.01 23.01 4.02 22.02 3 21 C3.33 20.01 3.66 19.02 4 18 C3.34 18 2.68 18 2 18 C0.5625 16.390625 0.5625 16.390625 -1 14.25 C-1.515625 13.55390625 -2.03125 12.8578125 -2.5625 12.140625 C-3.89995249 10.14898379 -4.98355423 8.16972077 -6 6 C-5.195625 5.7525 -4.39125 5.505 -3.5625 5.25 C-0.828919 4.27761141 -0.828919 4.27761141 -0.1875 1.875 C-0.125625 1.25625 -0.06375 0.6375 0 0 Z " fill="#342D34" transform="translate(134,96)"/>
<path d="M0 0 C1.22589844 0.01353516 1.22589844 0.01353516 2.4765625 0.02734375 C3.10304687 0.03894531 3.72953125 0.05054688 4.375 0.0625 C4.375 1.7125 4.375 3.3625 4.375 5.0625 C12.625 5.0625 20.875 5.0625 29.375 5.0625 C29.375 5.3925 29.375 5.7225 29.375 6.0625 C4.625 6.0625 -20.125 6.0625 -45.625 6.0625 C-45.625 5.7325 -45.625 5.4025 -45.625 5.0625 C-32.755 5.0625 -19.885 5.0625 -6.625 5.0625 C-6.625 3.7425 -6.625 2.4225 -6.625 1.0625 C-4.21954362 -0.14022819 -2.67503047 -0.03821472 0 0 Z " fill="#B49C80" transform="translate(45.625,-0.0625)"/>
<path d="M0 0 C0 0.33 0 0.66 0 1 C-3.63 1.33 -7.26 1.66 -11 2 C-11 2.33 -11 2.66 -11 3 C-25.97953064 4.32102947 -40.97681343 4.09899707 -56 4 C-56 3.34 -56 2.68 -56 2 C-15.74769186 -0.38776806 -15.74769186 -0.38776806 0 0 Z " fill="#DDDDDD" transform="translate(216,168)"/>
<path d="M0 0 C6.29068731 -0.02517514 12.58134377 -0.04307845 18.87207031 -0.05493164 C21.00130729 -0.05988558 23.13054102 -0.0666506 25.25976562 -0.07543945 C39.87189422 -0.13413657 54.40925555 0.19764474 69 1 C69 1.33 69 1.66 69 2 C68.11779785 1.99476318 67.2355957 1.98952637 66.32666016 1.98413086 C44.19597522 1.87143754 22.11678701 2.20868666 0 3 C0 2.01 0 1.02 0 0 Z " fill="#EFC36F" transform="translate(0,6)"/>
<path d="M0 0 C2.97 0.495 2.97 0.495 6 1 C6 1.66 6 2.32 6 3 C6.66 3 7.32 3 8 3 C9.4606285 5.64738916 10 6.89448334 10 10 C9.34 9.67 8.68 9.34 8 9 C7.71125 9.78375 7.4225 10.5675 7.125 11.375 C5.90414354 14.22366507 4.80702988 15.4990849 2.1875 17.125 C-0.34542966 18.13817186 -2.29603786 18.15022012 -5 18 C-2.22719294 14.91910327 0.06326356 13.31224548 4 12 C3.67 11.01 3.34 10.02 3 9 C1.35 9 -0.3 9 -2 9 C-1.34 7.68 -0.68 6.36 0 5 C0.66 5 1.32 5 2 5 C1.34 3.35 0.68 1.7 0 0 Z " fill="#172232" transform="translate(129,138)"/>
<path d="M0 0 C0 2.31 0 4.62 0 7 C-2.31 7.33 -4.62 7.66 -7 8 C-7 7.34 -7 6.68 -7 6 C-8.2375 6.04125 -9.475 6.0825 -10.75 6.125 C-14.01637962 6.13658291 -16.2146947 5.8568702 -19 4 C-18.67 3.01 -18.34 2.02 -18 1 C-12.03325384 -0.32594359 -6.07416385 -0.0884587 0 0 Z " fill="#2F3239" transform="translate(116,186)"/>
<path d="M0 0 C-0.99 0.33 -1.98 0.66 -3 1 C-3 2.65 -3 4.3 -3 6 C2.28 6.33 7.56 6.66 13 7 C13 7.33 13 7.66 13 8 C10.31306278 8.33851178 7.62559711 8.670936 4.9375 9 C3.80924805 9.14308594 3.80924805 9.14308594 2.65820312 9.2890625 C-1.93421317 9.84571902 -6.3742135 10.09829028 -11 10 C-11 7.03 -11 4.06 -11 1 C-7.1273408 0.0318352 -3.96388638 -0.07622858 0 0 Z " fill="#B0B2B5" transform="translate(11,227)"/>
<path d="M0 0 C-2 2 -2 2 -5 4 C-5.66 4.66 -6.32 5.32 -7 6 C-9.93359375 6.6328125 -9.93359375 6.6328125 -13.4375 7.125 C-15.16806641 7.37636719 -15.16806641 7.37636719 -16.93359375 7.6328125 C-20 8 -20 8 -23 8 C-23 8.66 -23 9.32 -23 10 C-24.32 10.33 -25.64 10.66 -27 11 C-27.66 10.01 -28.32 9.02 -29 8 C-23.35335196 5.27750898 -17.64543738 3.10882668 -11.6875 1.1875 C-10.99398437 0.95651611 -10.30046875 0.72553223 -9.5859375 0.48754883 C-3.4428084 -1.44261637 -3.4428084 -1.44261637 0 0 Z " fill="#9D9EA2" transform="translate(175,145)"/>
<path d="M0 0 C9.32280281 -0.14109129 18.51940252 0.27725779 27.8125 1 C29.72772461 1.14308594 29.72772461 1.14308594 31.68164062 1.2890625 C34.78811078 1.52175689 37.89418101 1.75879625 41 2 C41 2.66 41 3.32 41 4 C31.15539692 4.09162505 21.33182733 4.13521725 11.5 3.5625 C10.80140869 3.52326416 10.10281738 3.48402832 9.38305664 3.44360352 C6.15567351 3.23593813 3.10201203 2.94168222 0 2 C0 1.34 0 0.68 0 0 Z " fill="#ADB0B3" transform="translate(11,28)"/>
<path d="M0 0 C3.96 0 7.92 0 12 0 C12 0.33 12 0.66 12 1 C18.93 1.495 18.93 1.495 26 2 C26 2.33 26 2.66 26 3 C1.25 3 -23.5 3 -49 3 C-49 2.67 -49 2.34 -49 2 C-32.83 2 -16.66 2 0 2 C0 1.34 0 0.68 0 0 Z " fill="#A79483" transform="translate(140,4)"/>
<path d="M0 0 C1.98 0 3.96 0 6 0 C6 2.64 6 5.28 6 8 C-1.26153846 8.49230769 -1.26153846 8.49230769 -5 6 C-5.66 5.34 -6.32 4.68 -7 4 C-6.67 5.32 -6.34 6.64 -6 8 C-8.31 8 -10.62 8 -13 8 C-13 6.35 -13 4.7 -13 3 C-8.71 3 -4.42 3 0 3 C0 2.01 0 1.02 0 0 Z " fill="#28211F" transform="translate(248,0)"/>
<path d="M0 0 C0.66 0 1.32 0 2 0 C2 3.63 2 7.26 2 11 C-5.26 11 -12.52 11 -20 11 C-19.67 10.01 -19.34 9.02 -19 8 C-16.69 8 -14.38 8 -12 8 C-12.33 6.68 -12.66 5.36 -13 4 C-9.125 5.875 -9.125 5.875 -8 7 C-6.65252916 7.23075082 -5.29622435 7.41153063 -3.9375 7.5625 C-2.638125 7.706875 -1.33875 7.85125 0 8 C-0.185625 6.865625 -0.37125 5.73125 -0.5625 4.5625 C-0.706875 3.386875 -0.85125 2.21125 -1 1 C-0.67 0.67 -0.34 0.34 0 0 Z " fill="#D2AF6F" transform="translate(254,0)"/>
<path d="M0 0 C-4.19283949 2.18475204 -8.52489702 3.6309161 -13 5.125 C-13.80695313 5.40214844 -14.61390625 5.67929688 -15.4453125 5.96484375 C-16.22648438 6.22652344 -17.00765625 6.48820313 -17.8125 6.7578125 C-18.87404297 7.11576904 -18.87404297 7.11576904 -19.95703125 7.48095703 C-22 8 -22 8 -26 8 C-26.33 8.99 -26.66 9.98 -27 11 C-27.33 8.36 -27.66 5.72 -28 3 C-24.64703509 2.49171557 -21.29246657 1.99488543 -17.9375 1.5 C-16.52307617 1.28537109 -16.52307617 1.28537109 -15.08007812 1.06640625 C-9.99267758 0.32190861 -5.1412006 -0.17113566 0 0 Z " fill="#9C9FA3" transform="translate(172,142)"/>
<path d="M0 0 C2.31 0.33 4.62 0.66 7 1 C7 1.66 7 2.32 7 3 C7.78375 3.2475 8.5675 3.495 9.375 3.75 C12.32317108 5.15389099 12.9024777 6.00675737 14 9 C11.53721199 11.46278801 9.29323018 11.99771255 6 13 C7.32 13.66 8.64 14.32 10 15 C8.02 15 6.04 15 4 15 C4.3125 13.125 4.3125 13.125 5 11 C5.99 10.34 6.98 9.68 8 9 C5.69 8.34 3.38 7.68 1 7 C1 6.01 1 5.02 1 4 C0.34 4 -0.32 4 -1 4 C-0.67 2.68 -0.34 1.36 0 0 Z " fill="#555559" transform="translate(156,177)"/>
<path d="M0 0 C-2.56941712 2.56941712 -5.40938965 3.50654606 -8.75 4.75 C-9.43723145 5.0073291 -10.12446289 5.2646582 -10.83251953 5.52978516 C-34.18076166 14 -34.18076166 14 -42 14 C-42 13.34 -42 12.68 -42 12 C-40.80246094 11.62488281 -39.60492188 11.24976563 -38.37109375 10.86328125 C-3.53176695 -0.07677754 -3.53176695 -0.07677754 0 0 Z " fill="#D2D3D3" transform="translate(42,135)"/>
<path d="M0 0 C0.33 0.99 0.66 1.98 1 3 C-0.28965176 4.37562854 -1.62689293 5.70766393 -3 7 C-3.66 7 -4.32 7 -5 7 C-5 7.66 -5 8.32 -5 9 C-3.35 9.33 -1.7 9.66 0 10 C0 10.66 0 11.32 0 12 C-3.2491277 14.3208055 -6.05879291 15.43697042 -10 16 C-13 12.25 -13 12.25 -13 10 C-11.05127123 8.3981038 -9.10722061 6.90663524 -7.0625 5.4375 C-3.38299103 2.89247678 -3.38299103 2.89247678 0 0 Z " fill="#3F3A41" transform="translate(120,113)"/>
<path d="M0 0 C0.33 0.66 0.66 1.32 1 2 C2.31903157 2.69453432 3.65557572 3.35599256 5 4 C6.59699597 5.02059676 8.18018683 6.06306756 9.75 7.125 C10.54921875 7.66382813 11.3484375 8.20265625 12.171875 8.7578125 C12.77515625 9.16773438 13.3784375 9.57765625 14 10 C11.50907189 11.24546405 10.58919267 10.7767578 8 10 C8 10.66 8 11.32 8 12 C6.68 12.33 5.36 12.66 4 13 C3.67 11.68 3.34 10.36 3 9 C2.34 9 1.68 9 1 9 C1 8.34 1 7.68 1 7 C0.01 6.67 -0.98 6.34 -2 6 C-2 5.34 -2 4.68 -2 4 C-3.32 4.33 -4.64 4.66 -6 5 C-6 4.34 -6 3.68 -6 3 C-4.02 2.01 -2.04 1.02 0 0 Z " fill="#415B7B" transform="translate(148,163)"/>
<path d="M0 0 C2.375 1.0625 2.375 1.0625 4 3 C4.25 6.6875 4.25 6.6875 4 10 C2.68 9.67 1.36 9.34 0 9 C-0.33 7.02 -0.66 5.04 -1 3 C-2.97536745 3.34786708 -2.97536745 3.34786708 -5 4 C-5.33 4.66 -5.66 5.32 -6 6 C-4.68 6.66 -3.36 7.32 -2 8 C-4.31 8.33 -6.62 8.66 -9 9 C-9.1875 5.625 -9.1875 5.625 -9 2 C-5.51131349 -0.32579101 -4.10281481 -0.41865457 0 0 Z " fill="#544443" transform="translate(131,73)"/>
<path d="M0 0 C3 1 3 1 4.8125 3.3125 C6 6 6 6 5.1875 8.3125 C4.795625 8.869375 4.40375 9.42625 4 10 C3.01 9.67 2.02 9.34 1 9 C-0.68496298 9.96885372 -2.35178756 10.96986723 -4 12 C-4.99 12 -5.98 12 -7 12 C-5.44298069 7.32894208 -2.91552627 3.91294315 0 0 Z " fill="#888B92" transform="translate(133,155)"/>
<path d="M0 0 C11.55 0 23.1 0 35 0 C35 0.99 35 1.98 35 3 C23.45 2.67 11.9 2.34 0 2 C0 1.34 0 0.68 0 0 Z " fill="#848282" transform="translate(0,0)"/>
<path d="M0 0 C0 1.98 0 3.96 0 6 C-6.93 6 -13.86 6 -21 6 C-17.69504523 3.79669682 -14.87667528 2.95561629 -11.0625 1.875 C-9.83660156 1.52179688 -8.61070312 1.16859375 -7.34765625 0.8046875 C-4 0 -4 0 0 0 Z " fill="#E1E1DE" transform="translate(256,181)"/>
<path d="M0 0 C0 0.66 0 1.32 0 2 C-3.33155251 3.66577625 -7.06536059 3.12007856 -10.7265625 3.09765625 C-12.02078629 3.09553383 -12.02078629 3.09553383 -13.34115601 3.09336853 C-16.1024723 3.08776188 -18.86370812 3.07520827 -21.625 3.0625 C-23.4947905 3.05748586 -25.36458226 3.0529228 -27.234375 3.04882812 C-31.82294777 3.03779029 -36.41146023 3.0205212 -41 3 C-41 2.67 -41 2.34 -41 2 C-36.44697103 1.71198875 -31.89375131 1.42728118 -27.34033203 1.14550781 C-25.79437819 1.04938967 -24.24847819 0.95240096 -22.70263672 0.85449219 C-20.46856384 0.71314994 -18.23430992 0.57503824 -16 0.4375 C-15.31945557 0.39375244 -14.63891113 0.35000488 -13.93774414 0.30493164 C-9.28055561 0.02241941 -4.66294074 -0.03642922 0 0 Z " fill="#ECEDEB" transform="translate(112,172)"/>
<path d="M0 0 C2.64 0.66 5.28 1.32 8 2 C7.01 2.66 6.02 3.32 5 4 C5.99 4.66 6.98 5.32 8 6 C6.68 6.33 5.36 6.66 4 7 C4.2475 7.5775 4.495 8.155 4.75 8.75 C4.87375 9.86375 4.87375 9.86375 5 11 C3.0625 13.25 3.0625 13.25 1 15 C0.67 14.67 0.34 14.34 0 14 C-0.99 14 -1.98 14 -3 14 C-3.33 13.01 -3.66 12.02 -4 11 C-2.5625 8.3125 -2.5625 8.3125 -1 6 C-0.34 6.33 0.32 6.66 1 7 C1.69159401 5.15274948 1.69159401 5.15274948 2 3 C1.34 2.01 0.68 1.02 0 0 Z " fill="#6588AB" transform="translate(118,157)"/>
<path d="M0 0 C0.66 0 1.32 0 2 0 C3.31544817 2.63089635 3.41195717 4.94780472 3.6875 7.875 C3.79449219 8.92429687 3.90148437 9.97359375 4.01171875 11.0546875 C3.99951761 14.12124122 3.90274276 15.60064696 2 18 C0.35 18.33 -1.3 18.66 -3 19 C-2.01 12.73 -1.02 6.46 0 0 Z " fill="#B3A99D" transform="translate(136,117)"/>
<path d="M0 0 C0.99 0.33 1.98 0.66 3 1 C3 1.99 3 2.98 3 4 C3.66 4.66 4.32 5.32 5 6 C6.2077558 9.62326739 5.54311128 10.64146369 4 14 C0.20442119 14 -1.62902617 13.49821059 -5 12 C-5 11.34 -5 10.68 -5 10 C-3.68 9.34 -2.36 8.68 -1 8 C-1.33 6.68 -1.66 5.36 -2 4 C-1.34 4 -0.68 4 0 4 C0 2.68 0 1.36 0 0 Z " fill="#567596" transform="translate(113,172)"/>
<path d="M0 0 C8.91 0 17.82 0 27 0 C27.33 0.66 27.66 1.32 28 2 C18.64087671 2.99263429 9.39605802 3.10731538 0 3 C0 2.01 0 1.02 0 0 Z " fill="#DBDAD7" transform="translate(122,171)"/>
<path d="M0 0 C5.94 0 11.88 0 18 0 C18 0.99 18 1.98 18 3 C13.71 3 9.42 3 5 3 C5 3.99 5 4.98 5 6 C3.35 6 1.7 6 0 6 C0 6.66 0 7.32 0 8 C-0.99 7.67 -1.98 7.34 -3 7 C-2 5 -2 5 1 4 C0.67 2.68 0.34 1.36 0 0 Z " fill="#736B6A" transform="translate(230,0)"/>
<path d="M0 0 C0 3.3 0 6.6 0 10 C-0.33 9.01 -0.66 8.02 -1 7 C-4.69541586 6.04975021 -7.30458414 6.04975021 -11 7 C-10.67 5.35 -10.34 3.7 -10 2 C-10.66 2 -11.32 2 -12 2 C-12 1.34 -12 0.68 -12 0 C-8.34649162 -1.82675419 -3.94412788 -0.45509168 0 0 Z " fill="#9A9DA1" transform="translate(117,154)"/>
<path d="M0 0 C0.67610423 1.89248819 1.34050439 3.7891602 2 5.6875 C2.37125 6.74324219 2.7425 7.79898438 3.125 8.88671875 C3.9391857 11.78362056 4.17709796 14.01700623 4 17 C3.34 16.34 2.68 15.68 2 15 C2.33 14.34 2.66 13.68 3 13 C2.34 13 1.68 13 1 13 C-0.4375 11.390625 -0.4375 11.390625 -2 9.25 C-2.515625 8.55390625 -3.03125 7.8578125 -3.5625 7.140625 C-4.89995249 5.14898379 -5.98355423 3.16972077 -7 1 C-4 0 -4 0 0 0 Z " fill="#282228" transform="translate(135,101)"/>
<path d="M0 0 C2.31 0.33 4.62 0.66 7 1 C7.75 2.75 7.75 2.75 8 5 C6.0625 7.25 6.0625 7.25 4 9 C4.66 9.33 5.32 9.66 6 10 C4.02 10.66 2.04 11.32 0 12 C1.32 12.66 2.64 13.32 4 14 C1.69 14.33 -0.62 14.66 -3 15 C-3 13.35 -3 11.7 -3 10 C-2.360625 9.7525 -1.72125 9.505 -1.0625 9.25 C1.19060573 8.19851273 1.19060573 8.19851273 1.625 5.9375 C1.810625 4.9784375 1.810625 4.9784375 2 4 C2.66 3.67 3.32 3.34 4 3 C2.68 2.01 1.36 1.02 0 0 Z " fill="#3F5B7A" transform="translate(123,138)"/>
<path d="M0 0 C-1.0625 2.375 -1.0625 2.375 -3 5 C-6.6875 6.3125 -6.6875 6.3125 -10 7 C-9.34 5.68 -8.68 4.36 -8 3 C-8.66 3 -9.32 3 -10 3 C-10 2.34 -10 1.68 -10 1 C-6.59437148 0.22157062 -3.49234244 -0.09978121 0 0 Z M-10 7 C-11 10 -11 10 -13 12 C-14.98821313 12.39764263 -16.98944339 12.73775349 -19 13 C-19 12.01 -19 11.02 -19 10 C-18.34 10.33 -17.68 10.66 -17 11 C-16.67 10.01 -16.34 9.02 -16 8 C-13 7 -13 7 -10 7 Z " fill="#8A898F" transform="translate(35,193)"/>
<path d="M0 0 C1.32 0 2.64 0 4 0 C4.10815225 1.76949095 4.18566083 3.54087487 4.25 5.3125 C4.29640625 6.29863281 4.3428125 7.28476563 4.390625 8.30078125 C4 11 4 11 2.1640625 12.8125 C-2.28241027 15.25244174 -7.03549854 15.11820242 -12 15 C-4.5 10 -4.5 10 0 10 C0.66 9.01 1.32 8.02 2 7 C1.34 6.01 0.68 5.02 0 4 C0 2.68 0 1.36 0 0 Z " fill="#80838A" transform="translate(138,153)"/>
<path d="M0 0 C3.96 0.33 7.92 0.66 12 1 C12 1.99 12 2.98 12 4 C15.63 4 19.26 4 23 4 C23 4.33 23 4.66 23 5 C15.41 5 7.82 5 0 5 C0 3.35 0 1.7 0 0 Z " fill="#80766F" transform="translate(50,0)"/>
<path d="M0 0 C-0.33 1.32 -0.66 2.64 -1 4 C-3.41696872 4.05411124 -5.83271787 4.09372278 -8.25 4.125 C-8.93191406 4.14175781 -9.61382812 4.15851563 -10.31640625 4.17578125 C-14.0608235 4.21213482 -16.82352727 4.07944349 -20 2 C-16.33802435 -1.66197565 -4.95602095 -0.09311939 0 0 Z " fill="#999CA1" transform="translate(226,170)"/>
<path d="M0 0 C1.32 0 2.64 0 4 0 C4.268125 0.969375 4.53625 1.93875 4.8125 2.9375 C5.204375 3.948125 5.59625 4.95875 6 6 C6.99 6.33 7.98 6.66 9 7 C8 9 8 9 6 10 C4.00039988 10.039992 1.99952758 10.04346799 0 10 C0 9.34 0 8.68 0 8 C-0.99 8.33 -1.98 8.66 -3 9 C-3 8.34 -3 7.68 -3 7 C-1.68 6.34 -0.36 5.68 1 5 C-0.32 4.34 -1.64 3.68 -3 3 C-2.34 3 -1.68 3 -1 3 C-0.67 2.01 -0.34 1.02 0 0 Z " fill="#C39C8E" transform="translate(126,76)"/>
<path d="M0 0 C0.99 0.33 1.98 0.66 3 1 C4.56118428 1.06740865 6.1250252 1.08514456 7.6875 1.0625 C8.49574219 1.05347656 9.30398437 1.04445312 10.13671875 1.03515625 C10.75160156 1.02355469 11.36648437 1.01195312 12 1 C12 1.66 12 2.32 12 3 C13.65 3.33 15.3 3.66 17 4 C16.67 4.66 16.34 5.32 16 6 C10.06 5.67 4.12 5.34 -2 5 C-1 1 -1 1 0 0 Z " fill="#706462" transform="translate(206,2)"/>
<path d="M0 0 C5.94 0 11.88 0 18 0 C17 3 17 3 15 4 C7.69565217 4.23188406 7.69565217 4.23188406 4 3 C2.68 3 1.36 3 0 3 C0 2.01 0 1.02 0 0 Z " fill="#DADFE4" transform="translate(202,0)"/>
<path d="M0 0 C2.70108504 0.090916 5.36930311 0.23740766 8.0625 0.4375 C9.20041992 0.51581055 9.20041992 0.51581055 10.36132812 0.59570312 C12.24121722 0.72575835 14.12065685 0.86228038 16 1 C16 1.33 16 1.66 16 2 C8.45077186 3.02540318 1.04909157 3.11725965 -6.5625 3.0625 C-7.76197266 3.05798828 -8.96144531 3.05347656 -10.19726562 3.04882812 C-13.13156359 3.03713769 -16.06575449 3.02075138 -19 3 C-15.10862019 0.8434406 -12.27546483 0.82187915 -7.8125 0.9375 C-5.54220791 0.99127623 -3.27083579 1.02056384 -1 1 C-0.67 0.67 -0.34 0.34 0 0 Z " fill="#E7E6E3" transform="translate(54,174)"/>
<path d="M0 0 C1.98 0 3.96 0 6 0 C5.85950482 1.47968324 5.71245174 2.95874516 5.5625 4.4375 C5.48128906 5.26121094 5.40007813 6.08492188 5.31640625 6.93359375 C5 9 5 9 4 10 C2.35 10 0.7 10 -1 10 C-0.67 6.7 -0.34 3.4 0 0 Z " fill="#D9DAD9" transform="translate(56,100)"/>
<path d="M0 0 C2.475 0.495 2.475 0.495 5 1 C5.33 1.99 5.66 2.98 6 4 C-3.9 4 -13.8 4 -24 4 C-24 3.67 -24 3.34 -24 3 C-15.97667603 2.09958689 -8.07029553 1.88452677 0 2 C0 1.34 0 0.68 0 0 Z " fill="#949499" transform="translate(175,252)"/>
<path d="M0 0 C0 0.66 0 1.32 0 2 C-10.37357631 5.44419134 -10.37357631 5.44419134 -16 5 C-16 3.68 -16 2.36 -16 1 C-10.63904667 -0.12862175 -5.44693314 -0.09688221 0 0 Z " fill="#86868B" transform="translate(81,187)"/>
<path d="M0 0 C-0.61875 0.28875 -1.2375 0.5775 -1.875 0.875 C-4.13325765 1.93720042 -4.13325765 1.93720042 -6 4 C-8.56916657 4.30599063 -11.04758384 4.51087087 -13.625 4.625 C-14.68460937 4.68300781 -14.68460937 4.68300781 -15.765625 4.7421875 C-17.50998524 4.83647724 -19.25495691 4.91932891 -21 5 C-19.68 4.67 -18.36 4.34 -17 4 C-17 3.01 -17 2.02 -17 1 C-11.33357449 -0.22517308 -5.76291482 -0.09228867 0 0 Z " fill="#6D7079" transform="translate(133,189)"/>
<path d="M0 0 C1.32 0 2.64 0 4 0 C4 0.66 4 1.32 4 2 C14.56 2 25.12 2 36 2 C36 2.33 36 2.66 36 3 C23.79 3 11.58 3 -1 3 C-0.67 2.01 -0.34 1.02 0 0 Z " fill="#49403E" transform="translate(125,0)"/>
<path d="M0 0 C7.26 0.33 14.52 0.66 22 1 C22 1.33 22 1.66 22 2 C12.595 2.99 12.595 2.99 3 4 C3 4.66 3 5.32 3 6 C1.68 6 0.36 6 -1 6 C-0.67 4.02 -0.34 2.04 0 0 Z " fill="#7C7B80" transform="translate(121,173)"/>
<path d="M0 0 C0.99 0.33 1.98 0.66 3 1 C-1.625 5.875 -1.625 5.875 -5 7 C-8.125 6.25 -8.125 6.25 -11 5 C-11.33 4.01 -11.66 3.02 -12 2 C-11.30132812 2.02320313 -10.60265625 2.04640625 -9.8828125 2.0703125 C-8.51769531 2.09738281 -8.51769531 2.09738281 -7.125 2.125 C-6.22007813 2.14820313 -5.31515625 2.17140625 -4.3828125 2.1953125 C-1.81193006 2.24324836 -1.81193006 2.24324836 0 0 Z " fill="#4A6A8D" transform="translate(131,153)"/>
<path d="M0 0 C9.21875 0.9375 9.21875 0.9375 13 3 C13.33 3.99 13.66 4.98 14 6 C13.34 6 12.68 6 12 6 C11.34 7.32 10.68 8.64 10 10 C9.67 10 9.34 10 9 10 C9 8.35 9 6.7 9 5 C8.34 5 7.68 5 7 5 C7 4.34 7 3.68 7 3 C4.69 2.34 2.38 1.68 0 1 C0 0.67 0 0.34 0 0 Z " fill="#191B24" transform="translate(128,136)"/>
<path d="M0 0 C0 0.66 0 1.32 0 2 C0.66 2.66 1.32 3.32 2 4 C-4.4 5.23076923 -4.4 5.23076923 -7.4375 4.0625 C-7.953125 3.711875 -8.46875 3.36125 -9 3 C-9.33 3.99 -9.66 4.98 -10 6 C-11.65 6 -13.3 6 -15 6 C-15.33 5.34 -15.66 4.68 -16 4 C-13.89748139 3.32815382 -11.79292237 2.66269032 -9.6875 2 C-8.51574219 1.62875 -7.34398437 1.2575 -6.13671875 0.875 C-3 0 -3 0 0 0 Z " fill="#98989B" transform="translate(66,184)"/>
<path d="M0 0 C2 1.3125 2 1.3125 4 3 C4 3.99 4 4.98 4 6 C-0.455 7.485 -0.455 7.485 -5 9 C-5.33 8.34 -5.66 7.68 -6 7 C-5.67 6.34 -5.34 5.68 -5 5 C-4.34 5 -3.68 5 -3 5 C-3 4.01 -3 3.02 -3 2 C-2.01 2 -1.02 2 0 2 C0 1.34 0 0.68 0 0 Z " fill="#182D48" transform="translate(148,157)"/>
<path d="M0 0 C1.65 0 3.3 0 5 0 C5 1.32 5 2.64 5 4 C-5.23 3.67 -15.46 3.34 -26 3 C-26 2.67 -26 2.34 -26 2 C-17.42 2 -8.84 2 0 2 C0 1.34 0 0.68 0 0 Z " fill="#D9BB97" transform="translate(230,6)"/>
<path d="M0 0 C6.21689926 0.32720522 11.00899274 3.52799495 16 7 C16 7.33 16 7.66 16 8 C9.42367107 7.72015622 5.10707841 5.07639819 0 1 C0 0.67 0 0.34 0 0 Z " fill="#DBDBD9" transform="translate(27,71)"/>
<path d="M0 0 C0 0.33 0 0.66 0 1 C-0.71027344 1.06058594 -1.42054688 1.12117187 -2.15234375 1.18359375 C-3.07144531 1.26738281 -3.99054688 1.35117188 -4.9375 1.4375 C-5.85402344 1.51871094 -6.77054688 1.59992188 -7.71484375 1.68359375 C-9.96159732 1.76044976 -9.96159732 1.76044976 -11 3 C-16.74749785 4.0715674 -21.54345544 4.44108572 -27 2 C-27 1.67 -27 1.34 -27 1 C-17.98865693 0.3668316 -9.04028922 -0.1723784 0 0 Z " fill="#AEAEB1" transform="translate(216,170)"/>
<path d="M0 0 C2.97 0.495 2.97 0.495 6 1 C6 1.66 6 2.32 6 3 C11.94 3 17.88 3 24 3 C24 3.33 24 3.66 24 4 C15.42 4 6.84 4 -2 4 C-1.34 2.68 -0.68 1.36 0 0 Z " fill="#96969A" transform="translate(125,167)"/>
<path d="M0 0 C2.6875 2.375 2.6875 2.375 5 5 C5 5.99 5 6.98 5 8 C1.90694578 7.39096941 -0.19639762 6.40131197 -2.75 4.5625 C-3.36359375 4.13066406 -3.9771875 3.69882813 -4.609375 3.25390625 C-5.29773438 2.63322266 -5.29773438 2.63322266 -6 2 C-6 1.34 -6 0.68 -6 0 C-3 -1 -3 -1 0 0 Z " fill="#799ABB" transform="translate(155,163)"/>
<path d="M0 0 C0.66 0.99 1.32 1.98 2 3 C2.99 3.33 3.98 3.66 5 4 C5 5.32 5 6.64 5 8 C4.01 8 3.02 8 2 8 C2 8.99 2 9.98 2 11 C1.34 11 0.68 11 0 11 C-0.33 11.66 -0.66 12.32 -1 13 C-1.02696365 11.20841511 -1.04637917 9.41671527 -1.0625 7.625 C-1.07410156 6.62726563 -1.08570313 5.62953125 -1.09765625 4.6015625 C-1 2 -1 2 0 0 Z " fill="#14243E" transform="translate(143,151)"/>
<path d="M0 0 C-1 3 -1 3 -3.3125 4.1875 C-6 5 -6 5 -10 5 C-10.33 5.99 -10.66 6.98 -11 8 C-11.33 5.69 -11.66 3.38 -12 1 C-10.37512529 0.83211627 -8.75009558 0.66573213 -7.125 0.5 C-6.22007812 0.4071875 -5.31515625 0.314375 -4.3828125 0.21875 C-2 0 -2 0 0 0 Z " fill="#93969C" transform="translate(156,145)"/>
<path d="M0 0 C2.31 0.33 4.62 0.66 7 1 C6.67 2.65 6.34 4.3 6 6 C4.35 6.33 2.7 6.66 1 7 C1 6.01 1 5.02 1 4 C0.34 4 -0.32 4 -1 4 C-0.67 2.68 -0.34 1.36 0 0 Z " fill="#4A5F77" transform="translate(156,177)"/>
<path d="M0 0 C0.33 0.66 0.66 1.32 1 2 C3.01669827 3.13350534 3.01669827 3.13350534 5 4 C4.67 5.32 4.34 6.64 4 8 C2.02 7.34 0.04 6.68 -2 6 C-2 5.34 -2 4.68 -2 4 C-3.32 4.33 -4.64 4.66 -6 5 C-6 4.34 -6 3.68 -6 3 C-4.02 2.01 -2.04 1.02 0 0 Z " fill="#56708D" transform="translate(148,163)"/>
<path d="M0 0 C-0.99 0.495 -0.99 0.495 -2 1 C-2 1.66 -2 2.32 -2 3 C-2.66 3 -3.32 3 -4 3 C-4 3.66 -4 4.32 -4 5 C-6.97 4.505 -6.97 4.505 -10 4 C-10 2.68 -10 1.36 -10 0 C-6.33694766 -0.74926071 -3.57644848 -1.2380014 0 0 Z " fill="#4A4A50" transform="translate(108,187)"/>
<path d="M0 0 C0.66 0.33 1.32 0.66 2 1 C1.360625 1.28875 0.72125 1.5775 0.0625 1.875 C-2.15206079 2.82823451 -2.15206079 2.82823451 -3 5 C-3.99 4.67 -4.98 4.34 -6 4 C-6.99 4.66 -7.98 5.32 -9 6 C-11.1875 5.625 -11.1875 5.625 -13 5 C-11.5 3 -11.5 3 -9 1 C-6.27908926 0.68828401 -3.75096282 0.86470675 -1 1 C-0.67 0.67 -0.34 0.34 0 0 Z " fill="#82848B" transform="translate(76,150)"/>
<path d="M0 0 C1.36676632 0.13929356 2.7374567 0.24365301 4.109375 0.31640625 C5.24052734 0.37924805 5.24052734 0.37924805 6.39453125 0.44335938 C7.56048828 0.50233398 7.56048828 0.50233398 8.75 0.5625 C9.93916016 0.62727539 9.93916016 0.62727539 11.15234375 0.69335938 C13.10137815 0.79902991 15.05066748 0.89997966 17 1 C17 1.33 17 1.66 17 2 C7.76 2 -1.48 2 -11 2 C-4.47923902 -1.26038049 -4.47923902 -1.26038049 0 0 Z " fill="#D2D2D0" transform="translate(78,191)"/>
<path d="M0 0 C6.93 0 13.86 0 21 0 C21 0.33 21 0.66 21 1 C20.04738281 1.03738281 19.09476563 1.07476562 18.11328125 1.11328125 C16.85902344 1.17902344 15.60476562 1.24476563 14.3125 1.3125 C13.07113281 1.37050781 11.82976563 1.42851562 10.55078125 1.48828125 C6.91054453 2.01289182 5.00857611 2.97802002 2 5 C1.34 5 0.68 5 0 5 C0 3.35 0 1.7 0 0 Z " fill="#949498" transform="translate(0,180)"/>
<path d="M0 0 C7.75 0.75 7.75 0.75 10 3 C10 3.99 10 4.98 10 6 C5.91621717 5.25749403 1.98060777 4.17076699 -2 3 C-1.34 2.67 -0.68 2.34 0 2 C0 1.34 0 0.68 0 0 Z " fill="#7FA0BF" transform="translate(156,173)"/>
<path d="M0 0 C0 0.66 0 1.32 0 2 C-3 4 -3 4 -6.0625 4.5 C-9.11355373 4.72793454 -9.11355373 4.72793454 -11 7 C-11.33 5.35 -11.66 3.7 -12 2 C-10.7625 1.67 -9.525 1.34 -8.25 1 C-7.55390625 0.814375 -6.8578125 0.62875 -6.140625 0.4375 C-4 0 -4 0 0 0 Z " fill="#DDDEDC" transform="translate(107,183)"/>
<path d="M0 0 C-2.80472516 3.29967665 -6.16918209 5.08459104 -10 7 C-10.99 6.67 -11.98 6.34 -13 6 C-8.3374496 1.21475091 -6.68645054 -0.14535762 0 0 Z " fill="#DEDFDD" transform="translate(208,128)"/>
<path d="M0 0 C0.33 1.32 0.66 2.64 1 4 C-1 5 -1 5 -4 5 C-5.68236471 4.37400383 -7.3523962 3.71247732 -9 3 C-9 2.34 -9 1.68 -9 1 C-5.8035914 -0.06546953 -3.34252724 -0.07427838 0 0 Z " fill="#1A2C41" transform="translate(117,181)"/>
<path d="M0 0 C1.45792884 -0.05399736 2.91642712 -0.09279177 4.375 -0.125 C5.18710938 -0.14820313 5.99921875 -0.17140625 6.8359375 -0.1953125 C9 0 9 0 11 2 C9.35 2 7.7 2 6 2 C5.67 2.99 5.34 3.98 5 5 C3.68 5 2.36 5 1 5 C0.67 3.35 0.34 1.7 0 0 Z " fill="#262127" transform="translate(222,3)"/>
<path d="M0 0 C2.875 -0.125 2.875 -0.125 6 0 C6.66 0.66 7.32 1.32 8 2 C6.1875 4.5 6.1875 4.5 4 7 C3.01 7 2.02 7 1 7 C0.67 4.69 0.34 2.38 0 0 Z " fill="#241E21" transform="translate(124,88)"/>
<path d="M0 0 C-0.33 0.99 -0.66 1.98 -1 3 C-4.3 3.66 -7.6 4.32 -11 5 C-8.17986144 -0.64027712 -5.86288574 -0.13028635 0 0 Z " fill="#797C83" transform="translate(62,155)"/>
<path d="M0 0 C1.03930664 0.02030273 1.03930664 0.02030273 2.09960938 0.04101562 C3.79591265 0.07611155 5.49181136 0.12991057 7.1875 0.1875 C7.1875 0.5175 7.1875 0.8475 7.1875 1.1875 C2.8975 1.1875 -1.3925 1.1875 -5.8125 1.1875 C-5.8125 2.1775 -5.8125 3.1675 -5.8125 4.1875 C-7.4625 4.1875 -9.1125 4.1875 -10.8125 4.1875 C-10.8125 4.8475 -10.8125 5.5075 -10.8125 6.1875 C-11.8025 5.8575 -12.7925 5.5275 -13.8125 5.1875 C-11.05259388 -0.33231224 -5.46542677 -0.20397287 0 0 Z " fill="#504A4B" transform="translate(240.8125,1.8125)"/>
<path d="M0 0 C-0.33 0.66 -0.66 1.32 -1 2 C-6.56407966 3.72678334 -12.20803845 4.25182442 -18 4 C-12.20906558 0.75707672 -6.59189297 -0.26905686 0 0 Z " fill="#D3D4D4" transform="translate(115,201)"/>
<path d="M0 0 C0.66 1.32 1.32 2.64 2 4 C-0.77842595 6.77842595 -2.78366581 7.94471208 -6.75 8.125 C-7.4925 8.08375 -8.235 8.0425 -9 8 C-6.22719294 4.91910327 -3.93673644 3.31224548 0 2 C0 1.34 0 0.68 0 0 Z " fill="#1F344E" transform="translate(133,148)"/>
<path d="M0 0 C2.1875 -0.375 2.1875 -0.375 5 0 C6.99022836 1.83961648 8.38989899 3.79186148 10 6 C6.29706315 6.33663062 4.60465619 6.47736015 1.625 4.125 C0 2 0 2 0 0 Z " fill="#D1CBC8" transform="translate(133,91)"/>
<path d="M0 0 C0.66 0.33 1.32 0.66 2 1 C1.01 1 0.02 1 -1 1 C-0.67 0.67 -0.34 0.34 0 0 Z M-1 2 C-2 5 -2 5 -4 7 C-5.98821313 7.39764263 -7.98944339 7.73775349 -10 8 C-10 7.01 -10 6.02 -10 5 C-9.34 5.33 -8.68 5.66 -8 6 C-7.67 5.01 -7.34 4.02 -7 3 C-4 2 -4 2 -1 2 Z " fill="#7D7C82" transform="translate(26,198)"/>
<path d="M0 0 C1.91360971 0.21648378 3.83083621 0.40256968 5.75 0.5625 C6.73484375 0.64628906 7.7196875 0.73007813 8.734375 0.81640625 C9.48203125 0.87699219 10.2296875 0.93757812 11 1 C11 1.33 11 1.66 11 2 C4.07 2 -2.86 2 -10 2 C-6.09124044 -0.60583971 -4.38178845 -1.20577992 0 0 Z " fill="#D8D8D7" transform="translate(245,185)"/>
<path d="M0 0 C4.62 0 9.24 0 14 0 C13.34 2.31 12.68 4.62 12 7 C10.68 6.34 9.36 5.68 8 5 C8 4.34 8 3.68 8 3 C8.66 3 9.32 3 10 3 C10 2.34 10 1.68 10 1 C6.7 1 3.4 1 0 1 C0 0.67 0 0.34 0 0 Z " fill="#9D9EA2" transform="translate(161,172)"/>
<path d="M0 0 C2.05078125 0.03255208 4.1015625 0.06510417 6.15234375 0.09765625 C4.66734375 2.57265625 4.66734375 2.57265625 3.15234375 5.09765625 C2.82234375 4.43765625 2.49234375 3.77765625 2.15234375 3.09765625 C1.82234375 3.75765625 1.49234375 4.41765625 1.15234375 5.09765625 C0.16234375 4.76765625 -0.82765625 4.43765625 -1.84765625 4.09765625 C-2.17765625 3.10765625 -2.50765625 2.11765625 -2.84765625 1.09765625 C-1.84765625 0.09765625 -1.84765625 0.09765625 0 0 Z " fill="#4C6D90" transform="translate(116.84765625,166.90234375)"/>
<path d="M0 0 C1.32 0 2.64 0 4 0 C4 3.63 4 7.26 4 11 C3.01 10.01 2.02 9.02 1 8 C1 7.01 1 6.02 1 5 C0.68911632 3.32900023 0.35919668 1.66128463 0 0 Z " fill="#3E5673" transform="translate(138,153)"/>
<path d="M0 0 C1.65 0.33 3.3 0.66 5 1 C4.67 1.66 4.34 2.32 4 3 C3.34 3 2.68 3 2 3 C1.9175 3.61875 1.835 4.2375 1.75 4.875 C1 7 1 7 -1.0625 8.25 C-1.701875 8.4975 -2.34125 8.745 -3 9 C-2.67 6.69 -2.34 4.38 -2 2 C-1.34 2 -0.68 2 0 2 C0 1.34 0 0.68 0 0 Z " fill="#6987A9" transform="translate(123,139)"/>
<path d="M0 0 C0.66 0 1.32 0 2 0 C3.17051429 2.34102859 3.1992246 3.89352953 3.25 6.5 C3.27578125 7.2940625 3.3015625 8.088125 3.328125 8.90625 C3.21984375 9.5971875 3.1115625 10.288125 3 11 C2.01 11.66 1.02 12.32 0 13 C0.2784375 12.0409375 0.2784375 12.0409375 0.5625 11.0625 C0.706875 10.381875 0.85125 9.70125 1 9 C0.67 8.67 0.34 8.34 0 8 C-0.14115161 5.32941149 -0.04247107 2.67567762 0 0 Z " fill="#C8BEB4" transform="translate(136,117)"/>
<path d="M0 0 C0.66 0 1.32 0 2 0 C2 2.97 2 5.94 2 9 C-1.3 9 -4.6 9 -8 9 C-8 8.67 -8 8.34 -8 8 C-5.36 8 -2.72 8 0 8 C-0.2784375 6.2984375 -0.2784375 6.2984375 -0.5625 4.5625 C-0.706875 3.386875 -0.85125 2.21125 -1 1 C-0.67 0.67 -0.34 0.34 0 0 Z " fill="#A59889" transform="translate(254,0)"/>
<path d="M0 0 C1.65 0 3.3 0 5 0 C5.33 1.32 5.66 2.64 6 4 C5.34 4 4.68 4 4 4 C4 4.66 4 5.32 4 6 C3.01 6.33 2.02 6.66 1 7 C0.67 4.69 0.34 2.38 0 0 Z " fill="#5C4544" transform="translate(141,137)"/>
<path d="M0 0 C0.99 0.33 1.98 0.66 3 1 C2.67 3.31 2.34 5.62 2 8 C-0.64 7.34 -3.28 6.68 -6 6 C-4 4 -4 4 -1 3 C-0.67 2.01 -0.34 1.02 0 0 Z " fill="#443A37" transform="translate(139,131)"/>
<path d="M0 0 C2.0625 0.4375 2.0625 0.4375 4 1 C3.67 1.598125 3.34 2.19625 3 2.8125 C1.79212012 5.05386471 1.79212012 5.05386471 2 8 C0.68 7.34 -0.64 6.68 -2 6 C-1.125 1.125 -1.125 1.125 0 0 Z " fill="#C69F9A" transform="translate(106,126)"/>
<path d="M0 0 C0.66 0 1.32 0 2 0 C0.86467415 3.40597755 0.51883178 3.53452572 -2.5 5.0625 C-5.33019068 6.42445528 -5.33019068 6.42445528 -7 9 C-7.66 8.67 -8.32 8.34 -9 8 C-9 6.68 -9 5.36 -9 4 C-7 3 -7 3 -4.5 2.5625 C-1.84208667 2.19851448 -1.84208667 2.19851448 0 0 Z " fill="#746F75" transform="translate(117,125)"/>
<path d="M0 0 C1.32 0.33 2.64 0.66 4 1 C3.67 1.66 3.34 2.32 3 3 C5.97 3 8.94 3 12 3 C12 3.33 12 3.66 12 4 C5.88909517 4.09945415 0.02596573 4.0712828 -6 3 C-6 2.34 -6 1.68 -6 1 C-3.03 1.495 -3.03 1.495 0 2 C0 1.34 0 0.68 0 0 Z " fill="#776F6A" transform="translate(121,0)"/>
<path d="M0 0 C-0.66 1.32 -1.32 2.64 -2 4 C-1.34 4.33 -0.68 4.66 0 5 C-2.31 5 -4.62 5 -7 5 C-6.67 3.35 -6.34 1.7 -6 0 C-3 -1 -3 -1 0 0 Z " fill="#91959A" transform="translate(14,228)"/>
<path d="M0 0 C2.875 -0.125 2.875 -0.125 6 0 C6.66 0.66 7.32 1.32 8 2 C6.25 3.5625 6.25 3.5625 4 5 C1.75 4.6875 1.75 4.6875 0 4 C0 2.68 0 1.36 0 0 Z " fill="#2E2E33" transform="translate(157,184)"/>
<path d="M0 0 C-5.57313913 2.78656957 -7.76917417 2.90447472 -14 2 C-13.67 1.34 -13.34 0.68 -13 0 C-8.33710678 -0.85486376 -4.62372246 -1.30042194 0 0 Z " fill="#9A9BA1" transform="translate(195,173)"/>
<path d="M0 0 C0.33 0 0.66 0 1 0 C1 2.97 1 5.94 1 9 C1.66 9 2.32 9 3 9 C2.67 10.32 2.34 11.64 2 13 C2 12.34 2 11.68 2 11 C1.01 10.67 0.02 10.34 -1 10 C-2.1875 6.9375 -2.1875 6.9375 -3 4 C-2.34 4 -1.68 4 -1 4 C-0.67 2.68 -0.34 1.36 0 0 Z " fill="#2E282F" transform="translate(131,119)"/>
<path d="M0 0 C0.33 0.99 0.66 1.98 1 3 C-0.40445835 5.2636564 -2.1967913 7.0208685 -4 9 C-6.475 8.01 -6.475 8.01 -9 7 C-7.39598746 3.79197492 -4.19662773 3.36998331 -1 2 C-0.67 1.34 -0.34 0.68 0 0 Z " fill="#273D54" transform="translate(131,155)"/>
<path d="M0 0 C4.95 0 9.9 0 15 0 C15 0.33 15 0.66 15 1 C12.36 1 9.72 1 7 1 C6.67 1.66 6.34 2.32 6 3 C4.02 3 2.04 3 0 3 C0 2.01 0 1.02 0 0 Z " fill="#B3B5B6" transform="translate(202,0)"/>
<path d="M0 0 C1.2065625 0.0309375 1.2065625 0.0309375 2.4375 0.0625 C2.4375 0.7225 2.4375 1.3825 2.4375 2.0625 C-1.18223402 3.37876692 -3.65817131 4.0625 -7.5625 4.0625 C-7.8925 3.0725 -8.2225 2.0825 -8.5625 1.0625 C-7.3559375 1.0934375 -7.3559375 1.0934375 -6.125 1.125 C-3.0866539 1.050894 -3.0383461 0.074106 0 0 Z " fill="#8D8E94" transform="translate(193.5625,173.9375)"/>
<path d="M0 0 C0.99 0.33 1.98 0.66 3 1 C3.6875 3.0625 3.6875 3.0625 4 5 C2.02 5.33 0.04 5.66 -2 6 C-1.125 1.125 -1.125 1.125 0 0 Z " fill="#93969C" transform="translate(133,155)"/>
<path d="M0 0 C1.9453125 -0.29296875 1.9453125 -0.29296875 4.125 -0.1875 C5.40375 -0.125625 6.6825 -0.06375 8 0 C7.67 0.99 7.34 1.98 7 3 C4.03 3 1.06 3 -2 3 C-1.34 2.01 -0.68 1.02 0 0 Z " fill="#887E79" transform="translate(190,4)"/>
<path d="M0 0 C2.97 0 5.94 0 9 0 C9 0.66 9 1.32 9 2 C8.34 2 7.68 2 7 2 C7 2.66 7 3.32 7 4 C6.34 4 5.68 4 5 4 C4.67 4.66 4.34 5.32 4 6 C3.71125 5.38125 3.4225 4.7625 3.125 4.125 C2.06279958 1.86674235 2.06279958 1.86674235 0 0 Z " fill="#92939A" transform="translate(162,173)"/>
<path d="M0 0 C2.64 0 5.28 0 8 0 C6.25 2.5 6.25 2.5 4 5 C2.68 5 1.36 5 0 5 C0 3.35 0 1.7 0 0 Z " fill="#1F1C20" transform="translate(110,124)"/>
<path d="M0 0 C0.76570312 0.23009766 0.76570312 0.23009766 1.546875 0.46484375 C4.7749338 1.16905403 7.95418001 1.34888204 11.25 1.5625 C12.51328125 1.64628906 13.7765625 1.73007813 15.078125 1.81640625 C16.04234375 1.87699219 17.0065625 1.93757812 18 2 C18 2.33 18 2.66 18 3 C12.06 3 6.12 3 0 3 C0 2.01 0 1.02 0 0 Z " fill="#A29589" transform="translate(148,4)"/>
<path d="M0 0 C2 2 2 2 2 5 C0.35 5 -1.3 5 -3 5 C-3.66 3.68 -4.32 2.36 -5 1 C-2.625 0.375 -2.625 0.375 0 0 Z " fill="#1E1616" transform="translate(249,3)"/>
<path d="M0 0 C1.32 0.33 2.64 0.66 4 1 C4 3.31 4 5.62 4 8 C3.01 8 2.02 8 1 8 C0.67 5.36 0.34 2.72 0 0 Z " fill="#484547" transform="translate(250,0)"/>
<path d="M0 0 C0 0.66 0 1.32 0 2 C-2.40545638 3.20272819 -3.94996953 3.10071472 -6.625 3.0625 C-7.85089844 3.04896484 -7.85089844 3.04896484 -9.1015625 3.03515625 C-10.04128906 3.01775391 -10.04128906 3.01775391 -11 3 C-7.65817252 -1.0165182 -4.96805907 -0.24433077 0 0 Z " fill="#D9D9D9" transform="translate(112,172)"/>
<path d="M0 0 C0.99 0.33 1.98 0.66 3 1 C3 1.66 3 2.32 3 3 C6.3 3 9.6 3 13 3 C13 3.66 13 4.32 13 5 C8.71 4.67 4.42 4.34 0 4 C0 2.68 0 1.36 0 0 Z " fill="#E5C799" transform="translate(243,6)"/>
<path d="M0 0 C2.31 0 4.62 0 7 0 C5.02 2.97 5.02 2.97 3 6 C0 2.25 0 2.25 0 0 Z " fill="#83868D" transform="translate(105,175)"/>
<path d="M0 0 C2.66215851 0.38249404 5.32820516 0.6882906 8 1 C8 1.33 8 1.66 8 2 C3.38 2 -1.24 2 -6 2 C-6 1.34 -6 0.68 -6 0 C-3.40292666 -1.29853667 -2.79151288 -0.73460865 0 0 Z " fill="#9A9CA0" transform="translate(202,174)"/>
<path d="M0 0 C0.66 0 1.32 0 2 0 C3 3 4 6 5 9 C3.68 8.67 2.36 8.34 1 8 C0.34 5.69 -0.32 3.38 -1 1 C-0.67 0.67 -0.34 0.34 0 0 Z " fill="#1C293D" transform="translate(136,152)"/>
<path d="M0 0 C-3.28463659 2.18975773 -6.20696275 2.99806563 -10 4 C-10.33 3.01 -10.66 2.02 -11 1 C-6.87831311 -0.62950412 -4.29299643 -1.26264601 0 0 Z " fill="#CED0CF" transform="translate(187,139)"/>
<path d="M0 0 C2.475 0.99 2.475 0.99 5 2 C4.67 2.99 4.34 3.98 4 5 C1.69 4.67 -0.62 4.34 -3 4 C-2.34 3.67 -1.68 3.34 -1 3 C-0.67 2.01 -0.34 1.02 0 0 Z " fill="#424C57" transform="translate(163,180)"/>
<path d="M0 0 C0.99 0 1.98 0 3 0 C3.33 0.99 3.66 1.98 4 3 C-1.28 3 -6.56 3 -12 3 C-12 2.67 -12 2.34 -12 2 C-8.04 2 -4.08 2 0 2 C0 1.34 0 0.68 0 0 Z " fill="#828187" transform="translate(143,167)"/>
<path d="M0 0 C1.32 0 2.64 0 4 0 C4.33 1.65 4.66 3.3 5 5 C3.35 5 1.7 5 0 5 C0 4.34 0 3.68 0 3 C-0.66 2.67 -1.32 2.34 -2 2 C-1.34 1.34 -0.68 0.68 0 0 Z " fill="#94969D" transform="translate(235,156)"/>
<path d="M0 0 C1.32 0 2.64 0 4 0 C4 0.66 4 1.32 4 2 C6.64 2 9.28 2 12 2 C12 2.33 12 2.66 12 3 C7.71 3 3.42 3 -1 3 C-0.67 2.01 -0.34 1.02 0 0 Z " fill="#534B48" transform="translate(125,0)"/>
<path d="M0 0 C1.98 0 3.96 0 6 0 C6 0.99 6 1.98 6 3 C2.37 3 -1.26 3 -5 3 C-5 2.67 -5 2.34 -5 2 C-3.35 1.67 -1.7 1.34 0 1 C0 0.67 0 0.34 0 0 Z " fill="#717277" transform="translate(103,192)"/>
<path d="M0 0 C0.99 0 1.98 0 3 0 C3 1.65 3 3.3 3 5 C1.68 5.33 0.36 5.66 -1 6 C-1.625 4.125 -1.625 4.125 -2 2 C-1.34 1.34 -0.68 0.68 0 0 Z " fill="#80858D" transform="translate(118,141)"/>
<path d="M0 0 C-2.27795022 2.27795022 -3.93787293 3.05219877 -7 4 C-9.3125 3.625 -9.3125 3.625 -11 3 C-7.16674383 0.29417212 -4.67461851 -0.32613618 0 0 Z " fill="#DBDADB" transform="translate(42,135)"/>
<path d="M0 0 C0.66 0.33 1.32 0.66 2 1 C1.67 1.66 1.34 2.32 1 3 C1.66 3.33 2.32 3.66 3 4 C2.34 5.32 1.68 6.64 1 8 C0.34 8 -0.32 8 -1 8 C-1.04241723 5.66705225 -1.04092937 3.33297433 -1 1 C-0.67 0.67 -0.34 0.34 0 0 Z " fill="#777982" transform="translate(151,122)"/>
<path d="M0 0 C1.32 0 2.64 0 4 0 C4 1.65 4 3.3 4 5 C2.68 5 1.36 5 0 5 C0 3.35 0 1.7 0 0 Z " fill="#49403A" transform="translate(50,0)"/>
<path d="M0 0 C1.98 0 3.96 0 6 0 C5.01 0.495 5.01 0.495 4 1 C4 2.32 4 3.64 4 5 C3.01 5 2.02 5 1 5 C0.67 3.35 0.34 1.7 0 0 Z " fill="#493E3B" transform="translate(35,0)"/>
<path d="M0 0 C1.65 0 3.3 0 5 0 C4.01 0.495 4.01 0.495 3 1 C3 1.66 3 2.32 3 3 C3.66 3.33 4.32 3.66 5 4 C4.01 4.495 4.01 4.495 3 5 C0.875 4.0625 0.875 4.0625 -1 3 C-0.67 2.01 -0.34 1.02 0 0 Z " fill="#616163" transform="translate(98,187)"/>
<path d="M0 0 C0.33 -0.66 0.66 -1.32 1 -2 C1.66 -1.34 2.32 -0.68 3 0 C-0.01324195 1.50662097 -2.68286377 1.17770373 -6 1 C-6.66 0.34 -7.32 -0.32 -8 -1 C-4.37673261 -2.2077558 -3.35853631 -1.54311128 0 0 Z " fill="#6F869E" transform="translate(113,186)"/>
<path d="M0 0 C1.32 0.99 2.64 1.98 4 3 C3.67 4.98 3.34 6.96 3 9 C1.5 7.875 1.5 7.875 0 6 C-0.1875 2.8125 -0.1875 2.8125 0 0 Z " fill="#4D6F93" transform="translate(117,157)"/>
<path d="M0 0 C0 2.64 0 5.28 0 8 C-0.33 7.01 -0.66 6.02 -1 5 C-3.00016466 3.79117904 -3.00016466 3.79117904 -5 3 C-5 2.34 -5 1.68 -5 1 C-2 0 -2 0 0 0 Z " fill="#9BA4AC" transform="translate(117,156)"/>
<path d="M0 0 C0 0.99 0 1.98 0 3 C-2 5 -2 5 -4.625 5.125 C-5.40875 5.08375 -6.1925 5.0425 -7 5 C-7.33 4.34 -7.66 3.68 -8 3 C-5.36 2.01 -2.72 1.02 0 0 Z " fill="#1E191E" transform="translate(148,132)"/>
<path d="M0 0 C0.33 3.3 0.66 6.6 1 10 C0.34 10 -0.32 10 -1 10 C-1.309375 8.88625 -1.61875 7.7725 -1.9375 6.625 C-2.82326483 3.2054845 -2.82326483 3.2054845 -4 1 C-1 0 -1 0 0 0 Z " fill="#272228" transform="translate(122,120)"/>
<path d="M0 0 C0.99 0.33 1.98 0.66 3 1 C3.1875 3.875 3.1875 3.875 3 7 C2.01 7.66 1.02 8.32 0 9 C0 6.03 0 3.06 0 0 Z " fill="#342D34" transform="translate(122,100)"/>
<path d="M0 0 C0.66 0 1.32 0 2 0 C2 0.66 2 1.32 2 2 C3.65 2 5.3 2 7 2 C6.01 2.33 5.02 2.66 4 3 C4 3.66 4 4.32 4 5 C2.35 4.67 0.7 4.34 -1 4 C-0.67 2.68 -0.34 1.36 0 0 Z " fill="#8B6458" transform="translate(124,84)"/>
<path d="M0 0 C2.64 0 5.28 0 8 0 C8.33 0.99 8.66 1.98 9 3 C3.46153846 3.36923077 3.46153846 3.36923077 1.125 1.5 C0.75375 1.005 0.3825 0.51 0 0 Z " fill="#919399" transform="translate(61,177)"/>
<path d="M0 0 C-1.25 1.5625 -1.25 1.5625 -3 3 C-5.1875 2.6875 -5.1875 2.6875 -7 2 C-7 1.34 -7 0.68 -7 0 C-3.86650268 -1.04449911 -3.01031744 -0.93423645 0 0 Z " fill="#94969B" transform="translate(23,144)"/>
<path d="M0 0 C-0.33 1.32 -0.66 2.64 -1 4 C-2.65 4.33 -4.3 4.66 -6 5 C-3.74193548 0 -3.74193548 0 0 0 Z " fill="#18293D" transform="translate(133,142)"/>
<path d="M0 0 C1.65 0 3.3 0 5 0 C5 1.32 5 2.64 5 4 C3.35 3.67 1.7 3.34 0 3 C0 2.01 0 1.02 0 0 Z " fill="#D4C9BA" transform="translate(230,6)"/>
<path d="M0 0 C-0.33 1.32 -0.66 2.64 -1 4 C-2.98 4.33 -4.96 4.66 -7 5 C-2.25 0 -2.25 0 0 0 Z " fill="#838388" transform="translate(124,222)"/>
<path d="M0 0 C0.99 0.99 1.98 1.98 3 3 C2.67 3.66 2.34 4.32 2 5 C-0.475 4.01 -0.475 4.01 -3 3 C-3 2.34 -3 1.68 -3 1 C-2.01 0.67 -1.02 0.34 0 0 Z " fill="#395578" transform="translate(111,181)"/>
<path d="M0 0 C2.97 0.495 2.97 0.495 6 1 C6.33 1.99 6.66 2.98 7 4 C5.68 4 4.36 4 3 4 C3 3.34 3 2.68 3 2 C2.01 1.67 1.02 1.34 0 1 C0 0.67 0 0.34 0 0 Z " fill="#86858B" transform="translate(157,166)"/>
<path d="M0 0 C0.99 0.33 1.98 0.66 3 1 C3.33 1.99 3.66 2.98 4 4 C1.69 4 -0.62 4 -3 4 C-2.34 3.67 -1.68 3.34 -1 3 C-0.67 2.01 -0.34 1.02 0 0 Z " fill="#E0BDAD" transform="translate(126,76)"/>
<path d="M0 0 C1.65 0 3.3 0 5 0 C5 0.99 5 1.98 5 3 C4.01 3.33 3.02 3.66 2 4 C1.34 3.67 0.68 3.34 0 3 C0 2.01 0 1.02 0 0 Z " fill="#DEAE51" transform="translate(143,9)"/>
</svg>
